<svg version="1.1" viewBox="0.0 0.0 890.0 551.0" fill="none" stroke="none" stroke-linecap="square" stroke-miterlimit="10" width="890" height="551" xmlns:xlink="http://www.w3.org/1999/xlink" xmlns="http://www.w3.org/2000/svg"><path fill="#ffffff" d="M0 0L890.0 0L890.0 551.0L0 551.0L0 0Z" fill-rule="nonzero"/><path stroke="#cccccc" stroke-width="1.0" stroke-linecap="butt" d="M86.5 484.5L862.5 484.5" fill-rule="nonzero"/><path stroke="#cccccc" stroke-width="1.0" stroke-linecap="butt" d="M86.5 421.5L862.5 421.5" fill-rule="nonzero"/><path stroke="#cccccc" stroke-width="1.0" stroke-linecap="butt" d="M86.5 359.5L862.5 359.5" fill-rule="nonzero"/><path stroke="#cccccc" stroke-width="1.0" stroke-linecap="butt" d="M86.5 296.5L862.5 296.5" fill-rule="nonzero"/><path stroke="#cccccc" stroke-width="1.0" stroke-linecap="butt" d="M86.5 234.5L862.5 234.5" fill-rule="nonzero"/><path stroke="#333333" stroke-width="1.0" stroke-linecap="butt" d="M86.5 171.5L862.5 171.5" fill-rule="nonzero"/><path stroke="#cccccc" stroke-width="1.0" stroke-linecap="butt" d="M86.5 109.5L862.5 109.5" fill-rule="nonzero"/><clipPath id="id_0"><path d="M86.55 109.28333L862.45 109.28333L862.45 484.45L86.55 484.45L86.55 109.28333Z" clip-rule="nonzero"/></clipPath><path stroke="#b0c636" stroke-width="4.0" stroke-linecap="butt" clip-path="url(#id_0)" d="M100.91852 160.81096L129.65555 160.2563L158.3926 159.69397L187.12962 159.12518L215.86667 158.56342L244.6037 157.99815L273.34073 157.43668L302.0778 156.87003L330.81482 156.30574L359.55185 155.74017L388.28888 155.1761L417.02594 154.61032L445.76297 154.0446L474.5 153.47859L503.23703 369.4389L531.97406 269.82462L560.7111 175.80814L589.4481 171.53557L618.1852 175.318L646.92224 177.75778L675.65924 170.6921L704.3963 170.54355L733.13336 174.61592L761.87036 172.3106L790.6074 170.55905L819.3444 172.91373" fill-rule="nonzero"/><path stroke="#52b0ae" stroke-width="4.0" stroke-linecap="butt" clip-path="url(#id_0)" d="M100.91852 159.7977L129.65555 159.11238L158.3926 158.42654L187.12962 157.74025L215.86667 157.05353L244.6037 156.36642L273.34073 155.67896L302.0778 154.99112L330.81482 154.30295L359.55185 153.61441L388.28888 152.92554L417.02594 152.2363L445.76297 151.54668L474.5 150.8567L503.23703 433.54794L531.97406 219.62244L560.7111 182.53835L589.4481 181.05685L618.1852 161.87572L646.92224 174.2328L675.65924 181.41234L704.3963 172.0244L733.13336 173.36559L761.87036 171.30159L790.6074 171.96278L819.3444 170.9888L848.0815 172.6271" fill-rule="nonzero"/><path fill="#000000" fill-opacity="0.0" clip-path="url(#id_0)" d="M103.91852 160.81096C103.91852 162.4678 102.57537 163.81096 100.91852 163.81096C99.261665 163.81096 97.91852 162.4678 97.91852 160.81096C97.91852 159.1541 99.261665 157.81096 100.91852 157.81096C102.57537 157.81096 103.91852 159.1541 103.91852 160.81096Z" fill-rule="nonzero"/><path fill="#000000" fill-opacity="0.0" clip-path="url(#id_0)" d="M132.65555 160.2563C132.65555 161.91316 131.31241 163.2563 129.65555 163.2563C127.9987 163.2563 126.655556 161.91316 126.655556 160.2563C126.655556 158.59944 127.9987 157.2563 129.65555 157.2563C131.31241 157.2563 132.65555 158.59944 132.65555 160.2563Z" fill-rule="nonzero"/><path fill="#000000" fill-opacity="0.0" clip-path="url(#id_0)" d="M161.3926 159.69397C161.3926 161.35083 160.04945 162.69397 158.3926 162.69397C156.73573 162.69397 155.3926 161.35083 155.3926 159.69397C155.3926 158.03712 156.73573 156.69397 158.3926 156.69397C160.04945 156.69397 161.3926 158.03712 161.3926 159.69397Z" fill-rule="nonzero"/><path fill="#000000" fill-opacity="0.0" clip-path="url(#id_0)" d="M190.12962 159.12518C190.12962 160.78203 188.78648 162.12518 187.12962 162.12518C185.47278 162.12518 184.12962 160.78203 184.12962 159.12518C184.12962 157.46832 185.47278 156.12518 187.12962 156.12518C188.78648 156.12518 190.12962 157.46832 190.12962 159.12518Z" fill-rule="nonzero"/><path fill="#000000" fill-opacity="0.0" clip-path="url(#id_0)" d="M218.86667 158.56342C218.86667 160.22026 217.52351 161.56342 215.86667 161.56342C214.20981 161.56342 212.86667 160.22026 212.86667 158.56342C212.86667 156.90656 214.20981 155.56342 215.86667 155.56342C217.52351 155.56342 218.86667 156.90656 218.86667 158.56342Z" fill-rule="nonzero"/><path fill="#000000" fill-opacity="0.0" clip-path="url(#id_0)" d="M247.6037 157.99815C247.6037 159.65501 246.26056 160.99815 244.6037 160.99815C242.94685 160.99815 241.6037 159.65501 241.6037 157.99815C241.6037 156.3413 242.94685 154.99815 244.6037 154.99815C246.26056 154.99815 247.6037 156.3413 247.6037 157.99815Z" fill-rule="nonzero"/><path fill="#000000" fill-opacity="0.0" clip-path="url(#id_0)" d="M276.34073 157.43668C276.34073 159.09352 274.9976 160.43668 273.34073 160.43668C271.6839 160.43668 270.34073 159.09352 270.34073 157.43668C270.34073 155.77982 271.6839 154.43668 273.34073 154.43668C274.9976 154.43668 276.34073 155.77982 276.34073 157.43668Z" fill-rule="nonzero"/><path fill="#000000" fill-opacity="0.0" clip-path="url(#id_0)" d="M305.0778 156.87003C305.0778 158.52689 303.73462 159.87003 302.0778 159.87003C300.42093 159.87003 299.0778 158.52689 299.0778 156.87003C299.0778 155.21317 300.42093 153.87003 302.0778 153.87003C303.73462 153.87003 305.0778 155.21317 305.0778 156.87003Z" fill-rule="nonzero"/><path fill="#000000" fill-opacity="0.0" clip-path="url(#id_0)" d="M333.81482 156.30574C333.81482 157.9626 332.47168 159.30574 330.81482 159.30574C329.15796 159.30574 327.81482 157.9626 327.81482 156.30574C327.81482 154.6489 329.15796 153.30574 330.81482 153.30574C332.47168 153.30574 333.81482 154.6489 333.81482 156.30574Z" fill-rule="nonzero"/><path fill="#000000" fill-opacity="0.0" clip-path="url(#id_0)" d="M362.55185 155.74017C362.55185 157.39702 361.2087 158.74017 359.55185 158.74017C357.895 158.74017 356.55185 157.39702 356.55185 155.74017C356.55185 154.08331 357.895 152.74017 359.55185 152.74017C361.2087 152.74017 362.55185 154.08331 362.55185 155.74017Z" fill-rule="nonzero"/><path fill="#000000" fill-opacity="0.0" clip-path="url(#id_0)" d="M391.28888 155.1761C391.28888 156.83295 389.94574 158.1761 388.28888 158.1761C386.63205 158.1761 385.28888 156.83295 385.28888 155.1761C385.28888 153.51924 386.63205 152.1761 388.28888 152.1761C389.94574 152.1761 391.28888 153.51924 391.28888 155.1761Z" fill-rule="nonzero"/><path fill="#000000" fill-opacity="0.0" clip-path="url(#id_0)" d="M420.02594 154.61032C420.02594 156.26718 418.68277 157.61032 417.02594 157.61032C415.36908 157.61032 414.02594 156.26718 414.02594 154.61032C414.02594 152.95346 415.36908 151.61032 417.02594 151.61032C418.68277 151.61032 420.02594 152.95346 420.02594 154.61032Z" fill-rule="nonzero"/><path fill="#000000" fill-opacity="0.0" clip-path="url(#id_0)" d="M448.76297 154.0446C448.76297 155.70145 447.41983 157.0446 445.76297 157.0446C444.1061 157.0446 442.76297 155.70145 442.76297 154.0446C442.76297 152.38774 444.1061 151.0446 445.76297 151.0446C447.41983 151.0446 448.76297 152.38774 448.76297 154.0446Z" fill-rule="nonzero"/><path fill="#000000" fill-opacity="0.0" clip-path="url(#id_0)" d="M477.5 153.47859C477.5 155.13544 476.15686 156.47859 474.5 156.47859C472.84314 156.47859 471.5 155.13544 471.5 153.47859C471.5 151.82173 472.84314 150.47859 474.5 150.47859C476.15686 150.47859 477.5 151.82173 477.5 153.47859Z" fill-rule="nonzero"/><path fill="#000000" fill-opacity="0.0" clip-path="url(#id_0)" d="M506.23703 369.4389C506.23703 371.09576 504.8939 372.4389 503.23703 372.4389C501.58017 372.4389 500.23703 371.09576 500.23703 369.4389C500.23703 367.78207 501.58017 366.4389 503.23703 366.4389C504.8939 366.4389 506.23703 367.78207 506.23703 369.4389Z" fill-rule="nonzero"/><path fill="#000000" fill-opacity="0.0" clip-path="url(#id_0)" d="M534.97406 269.82462C534.97406 271.48145 533.6309 272.82462 531.97406 272.82462C530.3172 272.82462 528.97406 271.48145 528.97406 269.82462C528.97406 268.16776 530.3172 266.82462 531.97406 266.82462C533.6309 266.82462 534.97406 268.16776 534.97406 269.82462Z" fill-rule="nonzero"/><path fill="#000000" fill-opacity="0.0" clip-path="url(#id_0)" d="M563.7111 175.80814C563.7111 177.465 562.368 178.80814 560.7111 178.80814C559.05426 178.80814 557.7111 177.465 557.7111 175.80814C557.7111 174.15128 559.05426 172.80814 560.7111 172.80814C562.368 172.80814 563.7111 174.15128 563.7111 175.80814Z" fill-rule="nonzero"/><path fill="#000000" fill-opacity="0.0" clip-path="url(#id_0)" d="M592.4481 171.53557C592.4481 173.19241 591.105 174.53557 589.4481 174.53557C587.7913 174.53557 586.4481 173.19241 586.4481 171.53557C586.4481 169.87871 587.7913 168.53557 589.4481 168.53557C591.105 168.53557 592.4481 169.87871 592.4481 171.53557Z" fill-rule="nonzero"/><path fill="#000000" fill-opacity="0.0" clip-path="url(#id_0)" d="M621.1852 175.318C621.1852 176.97485 619.84204 178.318 618.1852 178.318C616.5283 178.318 615.1852 176.97485 615.1852 175.318C615.1852 173.66115 616.5283 172.318 618.1852 172.318C619.84204 172.318 621.1852 173.66115 621.1852 175.318Z" fill-rule="nonzero"/><path fill="#000000" fill-opacity="0.0" clip-path="url(#id_0)" d="M649.92224 177.75778C649.92224 179.41463 648.5791 180.75778 646.92224 180.75778C645.2654 180.75778 643.92224 179.41463 643.92224 177.75778C643.92224 176.10092 645.2654 174.75778 646.92224 174.75778C648.5791 174.75778 649.92224 176.10092 649.92224 177.75778Z" fill-rule="nonzero"/><path fill="#000000" fill-opacity="0.0" clip-path="url(#id_0)" d="M678.65924 170.6921C678.65924 172.34895 677.3161 173.6921 675.65924 173.6921C674.0024 173.6921 672.65924 172.34895 672.65924 170.6921C672.65924 169.03523 674.0024 167.6921 675.65924 167.6921C677.3161 167.6921 678.65924 169.03523 678.65924 170.6921Z" fill-rule="nonzero"/><path fill="#000000" fill-opacity="0.0" clip-path="url(#id_0)" d="M707.3963 170.54355C707.3963 172.2004 706.05316 173.54355 704.3963 173.54355C702.73944 173.54355 701.3963 172.2004 701.3963 170.54355C701.3963 168.88669 702.73944 167.54355 704.3963 167.54355C706.05316 167.54355 707.3963 168.88669 707.3963 170.54355Z" fill-rule="nonzero"/><path fill="#000000" fill-opacity="0.0" clip-path="url(#id_0)" d="M736.13336 174.61592C736.13336 176.27278 734.79016 177.61592 733.13336 177.61592C731.4765 177.61592 730.13336 176.27278 730.13336 174.61592C730.13336 172.95908 731.4765 171.61592 733.13336 171.61592C734.79016 171.61592 736.13336 172.95908 736.13336 174.61592Z" fill-rule="nonzero"/><path fill="#000000" fill-opacity="0.0" clip-path="url(#id_0)" d="M764.87036 172.3106C764.87036 173.96745 763.5272 175.3106 761.87036 175.3106C760.2135 175.3106 758.87036 173.96745 758.87036 172.3106C758.87036 170.65375 760.2135 169.3106 761.87036 169.3106C763.5272 169.3106 764.87036 170.65375 764.87036 172.3106Z" fill-rule="nonzero"/><path fill="#000000" fill-opacity="0.0" clip-path="url(#id_0)" d="M793.6074 170.55905C793.6074 172.21591 792.2643 173.55905 790.6074 173.55905C788.95056 173.55905 787.6074 172.21591 787.6074 170.55905C787.6074 168.90219 788.95056 167.55905 790.6074 167.55905C792.2643 167.55905 793.6074 168.90219 793.6074 170.55905Z" fill-rule="nonzero"/><path fill="#000000" fill-opacity="0.0" clip-path="url(#id_0)" d="M822.3444 172.91373C822.3444 174.57057 821.0013 175.91373 819.3444 175.91373C817.68756 175.91373 816.3444 174.57057 816.3444 172.91373C816.3444 171.25687 817.68756 169.91373 819.3444 169.91373C821.0013 169.91373 822.3444 171.25687 822.3444 172.91373Z" fill-rule="nonzero"/><path fill="#000000" fill-opacity="0.0" clip-path="url(#id_0)" d="M103.91852 159.7977C103.91852 161.45456 102.57537 162.7977 100.91852 162.7977C99.261665 162.7977 97.91852 161.45456 97.91852 159.7977C97.91852 158.14085 99.261665 156.7977 100.91852 156.7977C102.57537 156.7977 103.91852 158.14085 103.91852 159.7977Z" fill-rule="nonzero"/><path fill="#000000" fill-opacity="0.0" clip-path="url(#id_0)" d="M132.65555 159.11238C132.65555 160.76924 131.31241 162.11238 129.65555 162.11238C127.9987 162.11238 126.655556 160.76924 126.655556 159.11238C126.655556 157.45554 127.9987 156.11238 129.65555 156.11238C131.31241 156.11238 132.65555 157.45554 132.65555 159.11238Z" fill-rule="nonzero"/><path fill="#000000" fill-opacity="0.0" clip-path="url(#id_0)" d="M161.3926 158.42654C161.3926 160.0834 160.04945 161.42654 158.3926 161.42654C156.73573 161.42654 155.3926 160.0834 155.3926 158.42654C155.3926 156.7697 156.73573 155.42654 158.3926 155.42654C160.04945 155.42654 161.3926 156.7697 161.3926 158.42654Z" fill-rule="nonzero"/><path fill="#000000" fill-opacity="0.0" clip-path="url(#id_0)" d="M190.12962 157.74025C190.12962 159.3971 188.78648 160.74025 187.12962 160.74025C185.47278 160.74025 184.12962 159.3971 184.12962 157.74025C184.12962 156.08339 185.47278 154.74025 187.12962 154.74025C188.78648 154.74025 190.12962 156.08339 190.12962 157.74025Z" fill-rule="nonzero"/><path fill="#000000" fill-opacity="0.0" clip-path="url(#id_0)" d="M218.86667 157.05353C218.86667 158.71039 217.52351 160.05353 215.86667 160.05353C214.20981 160.05353 212.86667 158.71039 212.86667 157.05353C212.86667 155.39667 214.20981 154.05353 215.86667 154.05353C217.52351 154.05353 218.86667 155.39667 218.86667 157.05353Z" fill-rule="nonzero"/><path fill="#000000" fill-opacity="0.0" clip-path="url(#id_0)" d="M247.6037 156.36642C247.6037 158.02327 246.26056 159.36642 244.6037 159.36642C242.94685 159.36642 241.6037 158.02327 241.6037 156.36642C241.6037 154.70956 242.94685 153.36642 244.6037 153.36642C246.26056 153.36642 247.6037 154.70956 247.6037 156.36642Z" fill-rule="nonzero"/><path fill="#000000" fill-opacity="0.0" clip-path="url(#id_0)" d="M276.34073 155.67896C276.34073 157.3358 274.9976 158.67896 273.34073 158.67896C271.6839 158.67896 270.34073 157.3358 270.34073 155.67896C270.34073 154.0221 271.6839 152.67896 273.34073 152.67896C274.9976 152.67896 276.34073 154.0221 276.34073 155.67896Z" fill-rule="nonzero"/><path fill="#000000" fill-opacity="0.0" clip-path="url(#id_0)" d="M305.0778 154.99112C305.0778 156.64798 303.73462 157.99112 302.0778 157.99112C300.42093 157.99112 299.0778 156.64798 299.0778 154.99112C299.0778 153.33427 300.42093 151.99112 302.0778 151.99112C303.73462 151.99112 305.0778 153.33427 305.0778 154.99112Z" fill-rule="nonzero"/><path fill="#000000" fill-opacity="0.0" clip-path="url(#id_0)" d="M333.81482 154.30295C333.81482 155.95981 332.47168 157.30295 330.81482 157.30295C329.15796 157.30295 327.81482 155.95981 327.81482 154.30295C327.81482 152.64609 329.15796 151.30295 330.81482 151.30295C332.47168 151.30295 333.81482 152.64609 333.81482 154.30295Z" fill-rule="nonzero"/><path fill="#000000" fill-opacity="0.0" clip-path="url(#id_0)" d="M362.55185 153.61441C362.55185 155.27127 361.2087 156.61441 359.55185 156.61441C357.895 156.61441 356.55185 155.27127 356.55185 153.61441C356.55185 151.95757 357.895 150.61441 359.55185 150.61441C361.2087 150.61441 362.55185 151.95757 362.55185 153.61441Z" fill-rule="nonzero"/><path fill="#000000" fill-opacity="0.0" clip-path="url(#id_0)" d="M391.28888 152.92554C391.28888 154.58238 389.94574 155.92554 388.28888 155.92554C386.63205 155.92554 385.28888 154.58238 385.28888 152.92554C385.28888 151.26868 386.63205 149.92554 388.28888 149.92554C389.94574 149.92554 391.28888 151.26868 391.28888 152.92554Z" fill-rule="nonzero"/><path fill="#000000" fill-opacity="0.0" clip-path="url(#id_0)" d="M420.02594 152.2363C420.02594 153.89314 418.68277 155.2363 417.02594 155.2363C415.36908 155.2363 414.02594 153.89314 414.02594 152.2363C414.02594 150.57944 415.36908 149.2363 417.02594 149.2363C418.68277 149.2363 420.02594 150.57944 420.02594 152.2363Z" fill-rule="nonzero"/><path fill="#000000" fill-opacity="0.0" clip-path="url(#id_0)" d="M448.76297 151.54668C448.76297 153.20354 447.41983 154.54668 445.76297 154.54668C444.1061 154.54668 442.76297 153.20354 442.76297 151.54668C442.76297 149.88983 444.1061 148.54668 445.76297 148.54668C447.41983 148.54668 448.76297 149.88983 448.76297 151.54668Z" fill-rule="nonzero"/><path fill="#000000" fill-opacity="0.0" clip-path="url(#id_0)" d="M477.5 150.8567C477.5 152.51355 476.15686 153.8567 474.5 153.8567C472.84314 153.8567 471.5 152.51355 471.5 150.8567C471.5 149.19984 472.84314 147.8567 474.5 147.8567C476.15686 147.8567 477.5 149.19984 477.5 150.8567Z" fill-rule="nonzero"/><path fill="#000000" fill-opacity="0.0" clip-path="url(#id_0)" d="M506.23703 433.54794C506.23703 435.20477 504.8939 436.54794 503.23703 436.54794C501.58017 436.54794 500.23703 435.20477 500.23703 433.54794C500.23703 431.89108 501.58017 430.54794 503.23703 430.54794C504.8939 430.54794 506.23703 431.89108 506.23703 433.54794Z" fill-rule="nonzero"/><path fill="#000000" fill-opacity="0.0" clip-path="url(#id_0)" d="M534.97406 219.62244C534.97406 221.27928 533.6309 222.62244 531.97406 222.62244C530.3172 222.62244 528.97406 221.27928 528.97406 219.62244C528.97406 217.96558 530.3172 216.62244 531.97406 216.62244C533.6309 216.62244 534.97406 217.96558 534.97406 219.62244Z" fill-rule="nonzero"/><path fill="#000000" fill-opacity="0.0" clip-path="url(#id_0)" d="M563.7111 182.53835C563.7111 184.19519 562.368 185.53835 560.7111 185.53835C559.05426 185.53835 557.7111 184.19519 557.7111 182.53835C557.7111 180.88148 559.05426 179.53835 560.7111 179.53835C562.368 179.53835 563.7111 180.88148 563.7111 182.53835Z" fill-rule="nonzero"/><path fill="#000000" fill-opacity="0.0" clip-path="url(#id_0)" d="M592.4481 181.05685C592.4481 182.71371 591.105 184.05685 589.4481 184.05685C587.7913 184.05685 586.4481 182.71371 586.4481 181.05685C586.4481 179.4 587.7913 178.05685 589.4481 178.05685C591.105 178.05685 592.4481 179.4 592.4481 181.05685Z" fill-rule="nonzero"/><path fill="#000000" fill-opacity="0.0" clip-path="url(#id_0)" d="M621.1852 161.87572C621.1852 163.53258 619.84204 164.87572 618.1852 164.87572C616.5283 164.87572 615.1852 163.53258 615.1852 161.87572C615.1852 160.21887 616.5283 158.87572 618.1852 158.87572C619.84204 158.87572 621.1852 160.21887 621.1852 161.87572Z" fill-rule="nonzero"/><path fill="#000000" fill-opacity="0.0" clip-path="url(#id_0)" d="M649.92224 174.2328C649.92224 175.88966 648.5791 177.2328 646.92224 177.2328C645.2654 177.2328 643.92224 175.88966 643.92224 174.2328C643.92224 172.57594 645.2654 171.2328 646.92224 171.2328C648.5791 171.2328 649.92224 172.57594 649.92224 174.2328Z" fill-rule="nonzero"/><path fill="#000000" fill-opacity="0.0" clip-path="url(#id_0)" d="M678.65924 181.41234C678.65924 183.06918 677.3161 184.41234 675.65924 184.41234C674.0024 184.41234 672.65924 183.06918 672.65924 181.41234C672.65924 179.75548 674.0024 178.41234 675.65924 178.41234C677.3161 178.41234 678.65924 179.75548 678.65924 181.41234Z" fill-rule="nonzero"/><path fill="#000000" fill-opacity="0.0" clip-path="url(#id_0)" d="M707.3963 172.0244C707.3963 173.68126 706.05316 175.0244 704.3963 175.0244C702.73944 175.0244 701.3963 173.68126 701.3963 172.0244C701.3963 170.36755 702.73944 169.0244 704.3963 169.0244C706.05316 169.0244 707.3963 170.36755 707.3963 172.0244Z" fill-rule="nonzero"/><path fill="#000000" fill-opacity="0.0" clip-path="url(#id_0)" d="M736.13336 173.36559C736.13336 175.02243 734.79016 176.36559 733.13336 176.36559C731.4765 176.36559 730.13336 175.02243 730.13336 173.36559C730.13336 171.70872 731.4765 170.36559 733.13336 170.36559C734.79016 170.36559 736.13336 171.70872 736.13336 173.36559Z" fill-rule="nonzero"/><path fill="#000000" fill-opacity="0.0" clip-path="url(#id_0)" d="M764.87036 171.30159C764.87036 172.95844 763.5272 174.30159 761.87036 174.30159C760.2135 174.30159 758.87036 172.95844 758.87036 171.30159C758.87036 169.64473 760.2135 168.30159 761.87036 168.30159C763.5272 168.30159 764.87036 169.64473 764.87036 171.30159Z" fill-rule="nonzero"/><path fill="#000000" fill-opacity="0.0" clip-path="url(#id_0)" d="M793.6074 171.96278C793.6074 173.61964 792.2643 174.96278 790.6074 174.96278C788.95056 174.96278 787.6074 173.61964 787.6074 171.96278C787.6074 170.30594 788.95056 168.96278 790.6074 168.96278C792.2643 168.96278 793.6074 170.30594 793.6074 171.96278Z" fill-rule="nonzero"/><path fill="#000000" fill-opacity="0.0" clip-path="url(#id_0)" d="M822.3444 170.9888C822.3444 172.64566 821.0013 173.9888 819.3444 173.9888C817.68756 173.9888 816.3444 172.64566 816.3444 170.9888C816.3444 169.33194 817.68756 167.9888 819.3444 167.9888C821.0013 167.9888 822.3444 169.33194 822.3444 170.9888Z" fill-rule="nonzero"/><path fill="#000000" fill-opacity="0.0" clip-path="url(#id_0)" d="M851.0815 172.6271C851.0815 174.28395 849.73834 175.6271 848.0815 175.6271C846.4246 175.6271 845.0815 174.28395 845.0815 172.6271C845.0815 170.97025 846.4246 169.6271 848.0815 169.6271C849.73834 169.6271 851.0815 170.97025 851.0815 172.6271Z" fill-rule="nonzero"/><path fill="#000000" d="M463.60938 520.45L463.60938 512.8719L460.78125 512.8719L460.78125 511.85626L467.59375 511.85626L467.59375 512.8719L464.75 512.8719L464.75 520.45L463.60938 520.45ZM468.29688 513.075L468.29688 511.85626L469.35938 511.85626L469.35938 513.075L468.29688 513.075ZM468.29688 520.45L468.29688 514.23126L469.35938 514.23126L469.35938 520.45L468.29688 520.45ZM471.29688 520.45L471.29688 514.23126L472.23438 514.23126L472.23438 515.10626Q472.53125 514.6375 473.01562 514.3719Q473.5 514.09064 474.125 514.09064Q474.8125 514.09064 475.25 514.3719Q475.70312 514.65314 475.875 515.16876Q476.625 514.09064 477.79688 514.09064Q478.73438 514.09064 479.21875 514.60626Q479.71875 515.10626 479.71875 516.1844L479.71875 520.45L478.67188 520.45L478.67188 516.52814Q478.67188 515.90314 478.5625 515.6219Q478.46875 515.34064 478.20312 515.16876Q477.9375 514.9969 477.5625 514.9969Q476.90625 514.9969 476.46875 515.4344Q476.04688 515.8719 476.04688 516.84064L476.04688 520.45L474.98438 520.45L474.98438 516.40314Q474.98438 515.7 474.71875 515.35626Q474.46875 514.9969 473.89062 514.9969Q473.4375 514.9969 473.0625 515.23126Q472.6875 515.46564 472.51562 515.91876Q472.34375 516.3719 472.34375 517.21564L472.34375 520.45L471.29688 520.45ZM486.54688 518.45L487.64062 518.575Q487.39062 519.52814 486.6875 520.0594Q485.98438 520.59064 484.90625 520.59064Q483.54688 520.59064 482.73438 519.7469Q481.9375 518.90314 481.9375 517.3875Q481.9375 515.825 482.75 514.96564Q483.5625 514.09064 484.84375 514.09064Q486.09375 514.09064 486.875 514.9344Q487.67188 515.77814 487.67188 517.325Q487.67188 517.41876 487.67188 517.60626L483.03125 517.60626Q483.09375 518.6375 483.60938 519.1844Q484.125 519.71564 484.90625 519.71564Q485.48438 519.71564 485.89062 519.41876Q486.3125 519.10626 486.54688 518.45ZM483.09375 516.7469L486.5625 516.7469Q486.5 515.95 486.17188 515.5594Q485.65625 514.95 484.85938 514.95Q484.125 514.95 483.625 515.4344Q483.14062 515.91876 483.09375 516.7469Z" fill-rule="nonzero"/><path fill="#000000" d="M37.784386 317.5073Q38.284386 318.10104 38.48751 318.64792Q38.690636 319.17917 38.690636 319.80417Q38.690636 320.83542 38.190636 321.3823Q37.690636 321.92917 36.909386 321.92917Q36.45626 321.92917 36.08126 321.72604Q35.690636 321.52292 35.471886 321.17917Q35.23751 320.83542 35.128136 320.41354Q35.034386 320.11667 34.95626 319.47604Q34.815636 318.21042 34.596886 317.60104Q34.378136 317.60104 34.33126 317.60104Q33.67501 317.60104 33.409386 317.89792Q33.065636 318.30417 33.065636 319.10104Q33.065636 319.83542 33.33126 320.1948Q33.58126 320.55417 34.23751 320.72604L34.096886 321.7573Q33.440636 321.61667 33.034386 321.28854Q32.628136 320.96042 32.409386 320.35104Q32.190636 319.74167 32.190636 318.9448Q32.190636 318.14792 32.378136 317.64792Q32.565636 317.14792 32.846886 316.91354Q33.128136 316.67917 33.565636 316.58542Q33.83126 316.53854 34.534386 316.53854L35.940636 316.53854Q37.409386 316.53854 37.80001 316.47604Q38.190636 316.39792 38.55001 316.1948L38.55001 317.30417Q38.221886 317.46042 37.784386 317.5073ZM35.42501 317.60104Q35.659386 318.17917 35.83126 319.3198Q35.92501 319.97604 36.05001 320.24167Q36.159386 320.5073 36.378136 320.66354Q36.596886 320.80417 36.878136 320.80417Q37.30001 320.80417 37.58126 320.49167Q37.86251 320.16354 37.86251 319.55417Q37.86251 318.9448 37.596886 318.47604Q37.33126 317.99167 36.86251 317.77292Q36.503136 317.60104 35.815636 317.60104L35.42501 317.60104ZM41.08126 309.55417Q39.971886 310.42917 38.503136 311.03854Q37.01876 311.6323 35.440636 311.6323Q34.05001 311.6323 32.76876 311.1948Q31.284388 310.66354 29.815638 309.55417L29.815638 308.80417Q31.034388 309.5073 31.550013 309.74167Q32.36251 310.10104 33.23751 310.30417Q34.33126 310.55417 35.440636 310.55417Q38.26876 310.55417 41.08126 308.80417L41.08126 309.55417ZM38.55001 307.5698L32.33126 307.5698L32.33126 306.6323L33.20626 306.6323Q32.73751 306.33542 32.471886 305.85104Q32.190636 305.36667 32.190636 304.74167Q32.190636 304.05417 32.471886 303.61667Q32.753136 303.16354 33.26876 302.99167Q32.190636 302.24167 32.190636 301.0698Q32.190636 300.1323 32.70626 299.64792Q33.20626 299.14792 34.284386 299.14792L38.55001 299.14792L38.55001 300.1948L34.628136 300.1948Q34.003136 300.1948 33.721886 300.30417Q33.440636 300.39792 33.26876 300.66354Q33.096886 300.92917 33.096886 301.30417Q33.096886 301.96042 33.534386 302.39792Q33.971886 302.8198 34.940636 302.8198L38.55001 302.8198L38.55001 303.8823L34.503136 303.8823Q33.80001 303.8823 33.45626 304.14792Q33.096886 304.39792 33.096886 304.97604Q33.096886 305.42917 33.33126 305.80417Q33.565636 306.17917 34.01876 306.35104Q34.471886 306.52292 35.315636 306.52292L38.55001 306.52292L38.55001 307.5698ZM38.690636 297.36667L29.815638 294.8823L29.815638 294.03854L38.690636 296.52292L38.690636 297.36667ZM36.690636 293.99167L36.534386 292.96042Q37.159386 292.86667 37.48751 292.47604Q37.815636 292.0698 37.815636 291.33542Q37.815636 290.61667 37.534386 290.27292Q37.23751 289.91354 36.83126 289.91354Q36.471886 289.91354 36.26876 290.22604Q36.128136 290.4448 35.909386 291.30417Q35.61251 292.46042 35.409386 292.91354Q35.190636 293.35104 34.815636 293.58542Q34.440636 293.8198 33.971886 293.8198Q33.565636 293.8198 33.20626 293.6323Q32.846886 293.4448 32.61251 293.11667Q32.440636 292.86667 32.315636 292.4448Q32.190636 292.02292 32.190636 291.52292Q32.190636 290.80417 32.409386 290.2573Q32.61251 289.6948 32.971886 289.42917Q33.33126 289.16354 33.92501 289.0698L34.065636 290.10104Q33.596886 290.16354 33.33126 290.5073Q33.05001 290.83542 33.05001 291.46042Q33.05001 292.17917 33.30001 292.49167Q33.534386 292.80417 33.86251 292.80417Q34.065636 292.80417 34.221886 292.67917Q34.39376 292.53854 34.503136 292.27292Q34.565636 292.11667 34.76876 291.33542Q35.08126 290.21042 35.26876 289.77292Q35.45626 289.33542 35.815636 289.08542Q36.17501 288.83542 36.721886 288.83542Q37.253136 288.83542 37.721886 289.14792Q38.17501 289.4448 38.440636 290.02292Q38.690636 290.60104 38.690636 291.33542Q38.690636 292.55417 38.190636 293.1948Q37.67501 293.8198 36.690636 293.99167ZM34.503136 285.96042L34.503136 287.05417L29.815638 284.97604L29.815638 284.1323L34.503136 282.05417L34.503136 283.11667L31.003138 284.55417L34.503136 285.96042ZM37.534386 276.3198L38.55001 276.3198L38.55001 282.0073Q38.17501 282.0073 37.815636 281.8823Q37.23751 281.66354 36.67501 281.1948Q36.11251 280.71042 35.378136 279.80417Q34.221886 278.39792 33.55001 277.91354Q32.878136 277.41354 32.284386 277.41354Q31.659388 277.41354 31.237513 277.86667Q30.800013 278.3198 30.800013 279.03854Q30.800013 279.80417 31.253138 280.2573Q31.706263 280.71042 32.51876 280.72604L32.409386 281.80417Q31.190638 281.6948 30.565638 280.97604Q29.925013 280.24167 29.925013 279.0073Q29.925013 277.77292 30.612513 277.05417Q31.300013 276.33542 32.315636 276.33542Q32.83126 276.33542 33.33126 276.55417Q33.815636 276.7573 34.378136 277.2573Q34.92501 277.74167 35.878136 278.86667Q36.67501 279.8198 36.971886 280.10104Q37.253136 280.36667 37.534386 280.53854L37.534386 276.3198ZM41.08126 273.8823L41.08126 274.6323Q38.26876 272.8823 35.440636 272.8823Q34.346886 272.8823 33.253136 273.1323Q32.378136 273.33542 31.565638 273.6948Q31.050013 273.92917 29.815638 274.6323L29.815638 273.8823Q31.284388 272.78854 32.76876 272.2573Q34.05001 271.80417 35.440636 271.80417Q37.01876 271.80417 38.503136 272.41354Q39.971886 273.02292 41.08126 273.8823Z" fill-rule="nonzero"/><path fill="#000000" d="M62.925 485.8719L62.925 484.8094L66.175 484.8094L66.175 485.8719L62.925 485.8719ZM72.59688 487.4344L72.59688 488.45L66.90938 488.45Q66.90938 488.075 67.03438 487.71564Q67.25313 487.1375 67.72188 486.575Q68.20625 486.0125 69.1125 485.27814Q70.51875 484.1219 71.00313 483.45Q71.50313 482.77814 71.50313 482.1844Q71.50313 481.5594 71.05 481.1375Q70.59688 480.7 69.87813 480.7Q69.1125 480.7 68.65938 481.15314Q68.20625 481.60626 68.19063 482.41876L67.1125 482.3094Q67.22188 481.09064 67.94063 480.46564Q68.675 479.825 69.90938 479.825Q71.14375 479.825 71.8625 480.5125Q72.58125 481.2 72.58125 482.21564Q72.58125 482.73126 72.3625 483.23126Q72.15938 483.71564 71.65938 484.27814Q71.175 484.825 70.05 485.77814Q69.09688 486.575 68.81563 486.8719Q68.55 487.15314 68.37813 487.4344L72.59688 487.4344ZM74.05 486.2L75.15938 486.10626Q75.28438 486.91876 75.72188 487.325Q76.175 487.73126 76.81563 487.73126Q77.56563 487.73126 78.09688 487.15314Q78.62813 486.575 78.62813 485.6375Q78.62813 484.73126 78.1125 484.21564Q77.6125 483.6844 76.78438 483.6844Q76.28438 483.6844 75.8625 483.91876Q75.45625 484.15314 75.22188 484.5125L74.2375 484.3875L75.06563 479.98126L79.34688 479.98126L79.34688 480.98126L75.90938 480.98126L75.45625 483.29376Q76.22188 482.7469 77.06563 482.7469Q78.19063 482.7469 78.95625 483.52814Q79.7375 484.3094 79.7375 485.54376Q79.7375 486.7 79.06563 487.5594Q78.2375 488.59064 76.81563 488.59064Q75.64375 488.59064 74.89375 487.9344Q74.15938 487.27814 74.05 486.2Z" fill-rule="nonzero"/><path fill="#000000" d="M62.925 423.3441L62.925 422.2816L66.175 422.2816L66.175 423.3441L62.925 423.3441ZM72.59688 424.9066L72.59688 425.9222L66.90938 425.9222Q66.90938 425.5472 67.03438 425.18784Q67.25313 424.6097 67.72188 424.0472Q68.20625 423.4847 69.1125 422.75034Q70.51875 421.5941 71.00313 420.9222Q71.50313 420.25034 71.50313 419.6566Q71.50313 419.0316 71.05 418.6097Q70.59688 418.1722 69.87813 418.1722Q69.1125 418.1722 68.65938 418.62534Q68.20625 419.07846 68.19063 419.89096L67.1125 419.7816Q67.22188 418.56284 67.94063 417.93784Q68.675 417.2972 69.90938 417.2972Q71.14375 417.2972 71.8625 417.9847Q72.58125 418.6722 72.58125 419.68784Q72.58125 420.20346 72.3625 420.70346Q72.15938 421.18784 71.65938 421.75034Q71.175 422.2972 70.05 423.25034Q69.09688 424.0472 68.81563 424.3441Q68.55 424.62534 68.37813 424.9066L72.59688 424.9066ZM74.05 421.68784Q74.05 420.1566 74.3625 419.2347Q74.675 418.2972 75.28438 417.7972Q75.90938 417.2972 76.84688 417.2972Q77.53438 417.2972 78.05 417.57846Q78.58125 417.8597 78.925 418.39096Q79.26875 418.9066 79.45625 419.6566Q79.64375 420.4066 79.64375 421.68784Q79.64375 423.20346 79.33125 424.12534Q79.03438 425.0472 78.40938 425.56284Q77.8 426.06284 76.84688 426.06284Q75.6125 426.06284 74.89375 425.1722Q74.05 424.1097 74.05 421.68784ZM75.12813 421.68784Q75.12813 423.7972 75.62813 424.50034Q76.12813 425.20346 76.84688 425.20346Q77.58125 425.20346 78.06563 424.50034Q78.56563 423.7972 78.56563 421.68784Q78.56563 419.56284 78.06563 418.87534Q77.58125 418.1722 76.83125 418.1722Q76.1125 418.1722 75.675 418.7816Q75.12813 419.56284 75.12813 421.68784Z" fill-rule="nonzero"/><path fill="#000000" d="M62.925 360.8163L62.925 359.7538L66.175 359.7538L66.175 360.8163L62.925 360.8163ZM71.01875 363.39444L69.97188 363.39444L69.97188 356.6757Q69.58125 357.03506 68.95625 357.41006Q68.34688 357.76944 67.8625 357.9413L67.8625 356.9257Q68.7375 356.5038 69.39375 355.9257Q70.06563 355.33194 70.34688 354.76944L71.01875 354.76944L71.01875 363.39444ZM74.05 361.14444L75.15938 361.0507Q75.28438 361.8632 75.72188 362.26944Q76.175 362.6757 76.81563 362.6757Q77.56563 362.6757 78.09688 362.09756Q78.62813 361.51944 78.62813 360.58194Q78.62813 359.6757 78.1125 359.16006Q77.6125 358.6288 76.78438 358.6288Q76.28438 358.6288 75.8625 358.8632Q75.45625 359.09756 75.22188 359.45694L74.2375 359.33194L75.06563 354.9257L79.34688 354.9257L79.34688 355.9257L75.90938 355.9257L75.45625 358.2382Q76.22188 357.6913 77.06563 357.6913Q78.19063 357.6913 78.95625 358.47256Q79.7375 359.2538 79.7375 360.4882Q79.7375 361.64444 79.06563 362.5038Q78.2375 363.53506 76.81563 363.53506Q75.64375 363.53506 74.89375 362.8788Q74.15938 362.22256 74.05 361.14444Z" fill-rule="nonzero"/><path fill="#000000" d="M62.925 298.28854L62.925 297.22604L66.175 297.22604L66.175 298.28854L62.925 298.28854ZM71.01875 300.86667L69.97188 300.86667L69.97188 294.14792Q69.58125 294.5073 68.95625 294.8823Q68.34688 295.24167 67.8625 295.41354L67.8625 294.39792Q68.7375 293.97604 69.39375 293.39792Q70.06563 292.80417 70.34688 292.24167L71.01875 292.24167L71.01875 300.86667ZM74.05 296.6323Q74.05 295.10104 74.3625 294.17917Q74.675 293.24167 75.28438 292.74167Q75.90938 292.24167 76.84688 292.24167Q77.53438 292.24167 78.05 292.52292Q78.58125 292.80417 78.925 293.33542Q79.26875 293.85104 79.45625 294.60104Q79.64375 295.35104 79.64375 296.6323Q79.64375 298.14792 79.33125 299.0698Q79.03438 299.99167 78.40938 300.5073Q77.8 301.0073 76.84688 301.0073Q75.6125 301.0073 74.89375 300.11667Q74.05 299.05417 74.05 296.6323ZM75.12813 296.6323Q75.12813 298.74167 75.62813 299.4448Q76.12813 300.14792 76.84688 300.14792Q77.58125 300.14792 78.06563 299.4448Q78.56563 298.74167 78.56563 296.6323Q78.56563 294.5073 78.06563 293.8198Q77.58125 293.11667 76.83125 293.11667Q76.1125 293.11667 75.675 293.72604Q75.12813 294.5073 75.12813 296.6323Z" fill-rule="nonzero"/><path fill="#000000" d="M69.925 235.76076L69.925 234.69826L73.175 234.69826L73.175 235.76076L69.925 235.76076ZM74.05 236.08888L75.15938 235.99513Q75.28438 236.80763 75.72188 237.21388Q76.175 237.62013 76.81563 237.62013Q77.56563 237.62013 78.09688 237.042Q78.62813 236.46388 78.62813 235.52638Q78.62813 234.62013 78.1125 234.1045Q77.6125 233.57326 76.78438 233.57326Q76.28438 233.57326 75.8625 233.80763Q75.45625 234.042 75.22188 234.40138L74.2375 234.27638L75.06563 229.87013L79.34688 229.87013L79.34688 230.87013L75.90938 230.87013L75.45625 233.18263Q76.22188 232.63576 77.06563 232.63576Q78.19063 232.63576 78.95625 233.417Q79.7375 234.19826 79.7375 235.43263Q79.7375 236.58888 79.06563 237.44826Q78.2375 238.4795 76.81563 238.4795Q75.64375 238.4795 74.89375 237.82326Q74.15938 237.167 74.05 236.08888Z" fill-rule="nonzero"/><path fill="#000000" d="M74.05 171.57674Q74.05 170.04549 74.3625 169.12361Q74.675 168.18611 75.28438 167.68611Q75.90938 167.18611 76.84688 167.18611Q77.53438 167.18611 78.05 167.46736Q78.58125 167.74861 78.925 168.27986Q79.26875 168.79549 79.45625 169.54549Q79.64375 170.29549 79.64375 171.57674Q79.64375 173.09236 79.33125 174.01424Q79.03438 174.93611 78.40938 175.45174Q77.8 175.95174 76.84688 175.95174Q75.6125 175.95174 74.89375 175.06111Q74.05 173.99861 74.05 171.57674ZM75.12813 171.57674Q75.12813 173.68611 75.62813 174.38924Q76.12813 175.09236 76.84688 175.09236Q77.58125 175.09236 78.06563 174.38924Q78.56563 173.68611 78.56563 171.57674Q78.56563 169.45174 78.06563 168.76424Q77.58125 168.06111 76.83125 168.06111Q76.1125 168.06111 75.675 168.67049Q75.12813 169.45174 75.12813 171.57674Z" fill-rule="nonzero"/><path fill="#000000" d="M74.05 111.03333L75.15938 110.93958Q75.28438 111.75208 75.72188 112.15833Q76.175 112.56458 76.81563 112.56458Q77.56563 112.56458 78.09688 111.98646Q78.62813 111.40833 78.62813 110.47083Q78.62813 109.56458 78.1125 109.04896Q77.6125 108.51771 76.78438 108.51771Q76.28438 108.51771 75.8625 108.75208Q75.45625 108.98646 75.22188 109.34583L74.2375 109.22083L75.06563 104.81458L79.34688 104.81458L79.34688 105.81458L75.90938 105.81458L75.45625 108.12708Q76.22188 107.58021 77.06563 107.58021Q78.19063 107.58021 78.95625 108.36146Q79.7375 109.14271 79.7375 110.37708Q79.7375 111.53333 79.06563 112.39271Q78.2375 113.42396 76.81563 113.42396Q75.64375 113.42396 74.89375 112.76771Q74.15938 112.11146 74.05 111.03333Z" fill-rule="nonzero"/><path stroke="#b0c636" stroke-width="4.0" stroke-linecap="butt" d="M342.5 76.916664L354.5 76.916664" fill-rule="nonzero"/><path fill="#1a1a1a" d="M364.92188 80.916664L362.64062 72.322914L363.8125 72.322914L365.125 77.96354Q365.32812 78.83854 365.48438 79.71354Q365.8125 78.33854 365.875 78.11979L367.5 72.322914L368.875 72.322914L370.10938 76.666664Q370.5625 78.291664 370.78125 79.71354Q370.9375 78.90104 371.20312 77.83854L372.54688 72.322914L373.6875 72.322914L371.34375 80.916664L370.23438 80.916664L368.4375 74.36979Q368.20312 73.55729 368.15625 73.36979Q368.03125 73.947914 367.90625 74.36979L366.09375 80.916664L364.92188 80.916664ZM378.54688 78.916664L379.64062 79.041664Q379.39062 79.99479 378.6875 80.52604Q377.98438 81.05729 376.90625 81.05729Q375.54688 81.05729 374.73438 80.21354Q373.9375 79.36979 373.9375 77.854164Q373.9375 76.291664 374.75 75.43229Q375.5625 74.55729 376.84375 74.55729Q378.09375 74.55729 378.875 75.40104Q379.67188 76.24479 379.67188 77.791664Q379.67188 77.885414 379.67188 78.072914L375.03125 78.072914Q375.09375 79.104164 375.60938 79.65104Q376.125 80.18229 376.90625 80.18229Q377.48438 80.18229 377.89062 79.885414Q378.3125 79.572914 378.54688 78.916664ZM375.09375 77.21354L378.5625 77.21354Q378.5 76.416664 378.17188 76.02604Q377.65625 75.416664 376.85938 75.416664Q376.125 75.416664 375.625 75.90104Q375.14062 76.385414 375.09375 77.21354ZM382.26562 80.916664L381.28125 80.916664L381.28125 72.322914L382.34375 72.322914L382.34375 75.385414Q383.01562 74.55729 384.04688 74.55729Q384.625 74.55729 385.125 74.791664Q385.64062 75.010414 385.96875 75.43229Q386.3125 75.854164 386.5 76.447914Q386.6875 77.041664 386.6875 77.71354Q386.6875 79.30729 385.89062 80.18229Q385.09375 81.05729 384.0 81.05729Q382.89062 81.05729 382.26562 80.135414L382.26562 80.916664ZM382.25 77.760414Q382.25 78.86979 382.5625 79.36979Q383.0625 80.18229 383.90625 80.18229Q384.59375 80.18229 385.09375 79.58854Q385.60938 78.99479 385.60938 77.791664Q385.60938 76.572914 385.125 75.99479Q384.64062 75.416664 383.95312 75.416664Q383.26562 75.416664 382.75 76.02604Q382.25 76.61979 382.25 77.760414ZM387.875 78.33854L387.875 77.27604L391.125 77.27604L391.125 78.33854L387.875 78.33854ZM392.375 80.916664L392.375 72.322914L395.60938 72.322914Q396.59375 72.322914 397.1875 72.58854Q397.78125 72.854164 398.10938 73.40104Q398.45312 73.93229 398.45312 74.52604Q398.45312 75.072914 398.15625 75.55729Q397.85938 76.041664 397.25 76.33854Q398.03125 76.572914 398.4375 77.135414Q398.85938 77.68229 398.85938 78.43229Q398.85938 79.02604 398.60938 79.55729Q398.35938 80.072914 397.98438 80.354164Q397.60938 80.635414 397.03125 80.77604Q396.46875 80.916664 395.65625 80.916664L392.375 80.916664ZM393.51562 75.93229L395.375 75.93229Q396.125 75.93229 396.45312 75.83854Q396.89062 75.71354 397.10938 75.416664Q397.32812 75.104164 397.32812 74.65104Q397.32812 74.229164 397.125 73.90104Q396.92188 73.572914 396.53125 73.46354Q396.15625 73.33854 395.23438 73.33854L393.51562 73.33854L393.51562 75.93229ZM393.51562 79.90104L395.65625 79.90104Q396.20312 79.90104 396.42188 79.854164Q396.82812 79.791664 397.07812 79.635414Q397.34375 79.46354 397.51562 79.15104Q397.6875 78.83854 397.6875 78.43229Q397.6875 77.947914 397.4375 77.58854Q397.20312 77.229164 396.76562 77.08854Q396.32812 76.947914 395.5 76.947914L393.51562 76.947914L393.51562 79.90104ZM404.35938 80.15104Q403.76562 80.65104 403.21875 80.854164Q402.6875 81.05729 402.0625 81.05729Q401.03125 81.05729 400.48438 80.55729Q399.9375 80.05729 399.9375 79.27604Q399.9375 78.822914 400.14062 78.447914Q400.34375 78.05729 400.6875 77.83854Q401.03125 77.604164 401.45312 77.49479Q401.75 77.40104 402.39062 77.322914Q403.65625 77.18229 404.26562 76.96354Q404.26562 76.74479 404.26562 76.697914Q404.26562 76.041664 403.96875 75.77604Q403.5625 75.43229 402.76562 75.43229Q402.03125 75.43229 401.67188 75.697914Q401.3125 75.947914 401.14062 76.604164L400.10938 76.46354Q400.25 75.80729 400.57812 75.40104Q400.90625 74.99479 401.51562 74.77604Q402.125 74.55729 402.92188 74.55729Q403.71875 74.55729 404.21875 74.74479Q404.71875 74.93229 404.95312 75.21354Q405.1875 75.49479 405.28125 75.93229Q405.32812 76.197914 405.32812 76.90104L405.32812 78.30729Q405.32812 79.77604 405.39062 80.166664Q405.46875 80.55729 405.67188 80.916664L404.5625 80.916664Q404.40625 80.58854 404.35938 80.15104ZM404.26562 77.791664Q403.6875 78.02604 402.54688 78.197914Q401.89062 78.291664 401.625 78.416664Q401.35938 78.52604 401.20312 78.74479Q401.0625 78.96354 401.0625 79.24479Q401.0625 79.666664 401.375 79.947914Q401.70312 80.229164 402.3125 80.229164Q402.92188 80.229164 403.39062 79.96354Q403.875 79.697914 404.09375 79.229164Q404.26562 78.86979 404.26562 78.18229L404.26562 77.791664ZM406.875 79.05729L407.90625 78.90104Q408.0 79.52604 408.39062 79.854164Q408.79688 80.18229 409.53125 80.18229Q410.25 80.18229 410.59375 79.90104Q410.95312 79.604164 410.95312 79.197914Q410.95312 78.83854 410.64062 78.635414Q410.42188 78.49479 409.5625 78.27604Q408.40625 77.979164 407.95312 77.77604Q407.51562 77.55729 407.28125 77.18229Q407.04688 76.80729 407.04688 76.33854Q407.04688 75.93229 407.23438 75.572914Q407.42188 75.21354 407.75 74.979164Q408.0 74.80729 408.42188 74.68229Q408.84375 74.55729 409.34375 74.55729Q410.0625 74.55729 410.60938 74.77604Q411.17188 74.979164 411.4375 75.33854Q411.70312 75.697914 411.79688 76.291664L410.76562 76.43229Q410.70312 75.96354 410.35938 75.697914Q410.03125 75.416664 409.40625 75.416664Q408.6875 75.416664 408.375 75.666664Q408.0625 75.90104 408.0625 76.229164Q408.0625 76.43229 408.1875 76.58854Q408.32812 76.760414 408.59375 76.86979Q408.75 76.93229 409.53125 77.135414Q410.65625 77.447914 411.09375 77.635414Q411.53125 77.822914 411.78125 78.18229Q412.03125 78.541664 412.03125 79.08854Q412.03125 79.61979 411.71875 80.08854Q411.42188 80.541664 410.84375 80.80729Q410.26562 81.05729 409.53125 81.05729Q408.3125 81.05729 407.67188 80.55729Q407.04688 80.041664 406.875 79.05729ZM418.54688 78.916664L419.64062 79.041664Q419.39062 79.99479 418.6875 80.52604Q417.98438 81.05729 416.90625 81.05729Q415.54688 81.05729 414.73438 80.21354Q413.9375 79.36979 413.9375 77.854164Q413.9375 76.291664 414.75 75.43229Q415.5625 74.55729 416.84375 74.55729Q418.09375 74.55729 418.875 75.40104Q419.67188 76.24479 419.67188 77.791664Q419.67188 77.885414 419.67188 78.072914L415.03125 78.072914Q415.09375 79.104164 415.60938 79.65104Q416.125 80.18229 416.90625 80.18229Q417.48438 80.18229 417.89062 79.885414Q418.3125 79.572914 418.54688 78.916664ZM415.09375 77.21354L418.5625 77.21354Q418.5 76.416664 418.17188 76.02604Q417.65625 75.416664 416.85938 75.416664Q416.125 75.416664 415.625 75.90104Q415.14062 76.385414 415.09375 77.21354ZM425.32812 80.916664L425.32812 80.135414Q424.73438 81.05729 423.59375 81.05729Q422.84375 81.05729 422.21875 80.65104Q421.59375 80.229164 421.25 79.49479Q420.90625 78.760414 420.90625 77.80729Q420.90625 76.885414 421.21875 76.11979Q421.53125 75.354164 422.15625 74.96354Q422.78125 74.55729 423.54688 74.55729Q424.10938 74.55729 424.54688 74.791664Q424.98438 75.02604 425.26562 75.40104L425.26562 72.322914L426.3125 72.322914L426.3125 80.916664L425.32812 80.916664ZM422.0 77.80729Q422.0 79.010414 422.5 79.604164Q423.0 80.18229 423.6875 80.18229Q424.375 80.18229 424.85938 79.61979Q425.34375 79.05729 425.34375 77.90104Q425.34375 76.61979 424.84375 76.02604Q424.35938 75.43229 423.64062 75.43229Q422.9375 75.43229 422.46875 76.010414Q422.0 76.572914 422.0 77.80729Z" fill-rule="nonzero"/><path stroke="#52b0ae" stroke-width="4.0" stroke-linecap="butt" d="M443.5 76.916664L455.5 76.916664" fill-rule="nonzero"/><path fill="#1a1a1a" d="M464.04688 78.15104L465.10938 78.05729Q465.1875 78.71354 465.46875 79.11979Q465.75 79.52604 466.32812 79.791664Q466.92188 80.041664 467.65625 80.041664Q468.29688 80.041664 468.79688 79.854164Q469.29688 79.65104 469.53125 79.322914Q469.78125 78.979164 469.78125 78.58854Q469.78125 78.18229 469.54688 77.885414Q469.3125 77.572914 468.78125 77.36979Q468.42188 77.229164 467.23438 76.947914Q466.0625 76.666664 465.59375 76.416664Q464.96875 76.08854 464.67188 75.61979Q464.375 75.135414 464.375 74.541664Q464.375 73.90104 464.73438 73.33854Q465.10938 72.760414 465.8125 72.479164Q466.53125 72.18229 467.39062 72.18229Q468.34375 72.18229 469.07812 72.49479Q469.8125 72.791664 470.20312 73.40104Q470.59375 73.99479 470.625 74.74479L469.53125 74.822914Q469.4375 74.010414 468.92188 73.604164Q468.42188 73.18229 467.4375 73.18229Q466.40625 73.18229 465.9375 73.55729Q465.46875 73.93229 465.46875 74.46354Q465.46875 74.93229 465.79688 75.229164Q466.125 75.52604 467.5 75.83854Q468.89062 76.15104 469.40625 76.385414Q470.15625 76.74479 470.51562 77.27604Q470.875 77.791664 470.875 78.49479Q470.875 79.18229 470.48438 79.791664Q470.09375 80.385414 469.35938 80.729164Q468.625 81.05729 467.70312 81.05729Q466.53125 81.05729 465.73438 80.729164Q464.95312 80.385414 464.5 79.697914Q464.0625 79.010414 464.04688 78.15104ZM476.26562 83.30729L476.26562 80.260414Q476.01562 80.604164 475.5625 80.83854Q475.125 81.05729 474.625 81.05729Q473.51562 81.05729 472.71875 80.18229Q471.92188 79.291664 471.92188 77.74479Q471.92188 76.80729 472.25 76.072914Q472.57812 75.322914 473.1875 74.947914Q473.8125 74.55729 474.54688 74.55729Q475.70312 74.55729 476.35938 75.52604L476.35938 74.697914L477.3125 74.697914L477.3125 83.30729L476.26562 83.30729ZM473.0 77.791664Q473.0 78.99479 473.5 79.58854Q474.01562 80.18229 474.71875 80.18229Q475.39062 80.18229 475.875 79.61979Q476.35938 79.041664 476.35938 77.885414Q476.35938 76.635414 475.84375 76.010414Q475.34375 75.385414 474.64062 75.385414Q473.96875 75.385414 473.48438 75.979164Q473.0 76.55729 473.0 77.791664ZM483.375 80.916664L483.375 79.99479Q482.64062 81.05729 481.39062 81.05729Q480.84375 81.05729 480.35938 80.854164Q479.89062 80.635414 479.65625 80.322914Q479.42188 79.99479 479.32812 79.52604Q479.26562 79.229164 479.26562 78.541664L479.26562 74.697914L480.32812 74.697914L480.32812 78.15104Q480.32812 78.96354 480.39062 79.260414Q480.48438 79.666664 480.79688 79.916664Q481.125 80.15104 481.60938 80.15104Q482.07812 80.15104 482.48438 79.916664Q482.90625 79.666664 483.07812 79.24479Q483.26562 78.822914 483.26562 78.02604L483.26562 74.697914L484.3125 74.697914L484.3125 80.916664L483.375 80.916664ZM486.29688 73.541664L486.29688 72.322914L487.35938 72.322914L487.35938 73.541664L486.29688 73.541664ZM486.29688 80.916664L486.29688 74.697914L487.35938 74.697914L487.35938 80.916664L486.29688 80.916664ZM488.875 79.05729L489.90625 78.90104Q490.0 79.52604 490.39062 79.854164Q490.79688 80.18229 491.53125 80.18229Q492.25 80.18229 492.59375 79.90104Q492.95312 79.604164 492.95312 79.197914Q492.95312 78.83854 492.64062 78.635414Q492.42188 78.49479 491.5625 78.27604Q490.40625 77.979164 489.95312 77.77604Q489.51562 77.55729 489.28125 77.18229Q489.04688 76.80729 489.04688 76.33854Q489.04688 75.93229 489.23438 75.572914Q489.42188 75.21354 489.75 74.979164Q490.0 74.80729 490.42188 74.68229Q490.84375 74.55729 491.34375 74.55729Q492.0625 74.55729 492.60938 74.77604Q493.17188 74.979164 493.4375 75.33854Q493.70312 75.697914 493.79688 76.291664L492.76562 76.43229Q492.70312 75.96354 492.35938 75.697914Q492.03125 75.416664 491.40625 75.416664Q490.6875 75.416664 490.375 75.666664Q490.0625 75.90104 490.0625 76.229164Q490.0625 76.43229 490.1875 76.58854Q490.32812 76.760414 490.59375 76.86979Q490.75 76.93229 491.53125 77.135414Q492.65625 77.447914 493.09375 77.635414Q493.53125 77.822914 493.78125 78.18229Q494.03125 78.541664 494.03125 79.08854Q494.03125 79.61979 493.71875 80.08854Q493.42188 80.541664 492.84375 80.80729Q492.26562 81.05729 491.53125 81.05729Q490.3125 81.05729 489.67188 80.55729Q489.04688 80.041664 488.875 79.05729ZM496.29688 80.916664L496.29688 72.322914L497.34375 72.322914L497.34375 75.40104Q498.07812 74.55729 499.20312 74.55729Q499.90625 74.55729 500.40625 74.83854Q500.92188 75.104164 501.14062 75.58854Q501.35938 76.05729 501.35938 76.979164L501.35938 80.916664L500.3125 80.916664L500.3125 76.979164Q500.3125 76.18229 499.96875 75.822914Q499.625 75.46354 499.0 75.46354Q498.53125 75.46354 498.10938 75.71354Q497.70312 75.947914 497.51562 76.36979Q497.34375 76.77604 497.34375 77.510414L497.34375 80.916664L496.29688 80.916664ZM503.25 83.30729L503.125 82.322914Q503.46875 82.416664 503.73438 82.416664Q504.07812 82.416664 504.28125 82.291664Q504.5 82.18229 504.64062 81.979164Q504.73438 81.80729 504.96875 81.18229Q504.98438 81.104164 505.0625 80.93229L502.6875 74.697914L503.82812 74.697914L505.125 78.291664Q505.375 78.979164 505.57812 79.74479Q505.76562 79.010414 506.01562 78.322914L507.34375 74.697914L508.39062 74.697914L506.03125 81.02604Q505.64062 82.041664 505.4375 82.43229Q505.15625 82.96354 504.78125 83.197914Q504.42188 83.447914 503.92188 83.447914Q503.625 83.447914 503.25 83.30729ZM507.875 78.33854L507.875 77.27604L511.125 77.27604L511.125 78.33854L507.875 78.33854ZM512.375 80.916664L512.375 72.322914L515.6094 72.322914Q516.59375 72.322914 517.1875 72.58854Q517.78125 72.854164 518.1094 73.40104Q518.4531 73.93229 518.4531 74.52604Q518.4531 75.072914 518.15625 75.55729Q517.8594 76.041664 517.25 76.33854Q518.03125 76.572914 518.4375 77.135414Q518.8594 77.68229 518.8594 78.43229Q518.8594 79.02604 518.6094 79.55729Q518.3594 80.072914 517.9844 80.354164Q517.6094 80.635414 517.03125 80.77604Q516.46875 80.916664 515.65625 80.916664L512.375 80.916664ZM513.5156 75.93229L515.375 75.93229Q516.125 75.93229 516.4531 75.83854Q516.8906 75.71354 517.1094 75.416664Q517.3281 75.104164 517.3281 74.65104Q517.3281 74.229164 517.125 73.90104Q516.9219 73.572914 516.53125 73.46354Q516.15625 73.33854 515.2344 73.33854L513.5156 73.33854L513.5156 75.93229ZM513.5156 79.90104L515.65625 79.90104Q516.2031 79.90104 516.4219 79.854164Q516.8281 79.791664 517.0781 79.635414Q517.34375 79.46354 517.5156 79.15104Q517.6875 78.83854 517.6875 78.43229Q517.6875 77.947914 517.4375 77.58854Q517.2031 77.229164 516.7656 77.08854Q516.3281 76.947914 515.5 76.947914L513.5156 76.947914L513.5156 79.90104ZM524.3594 80.15104Q523.7656 80.65104 523.21875 80.854164Q522.6875 81.05729 522.0625 81.05729Q521.03125 81.05729 520.4844 80.55729Q519.9375 80.05729 519.9375 79.27604Q519.9375 78.822914 520.1406 78.447914Q520.34375 78.05729 520.6875 77.83854Q521.03125 77.604164 521.4531 77.49479Q521.75 77.40104 522.3906 77.322914Q523.65625 77.18229 524.2656 76.96354Q524.2656 76.74479 524.2656 76.697914Q524.2656 76.041664 523.96875 75.77604Q523.5625 75.43229 522.7656 75.43229Q522.03125 75.43229 521.6719 75.697914Q521.3125 75.947914 521.1406 76.604164L520.1094 76.46354Q520.25 75.80729 520.5781 75.40104Q520.90625 74.99479 521.5156 74.77604Q522.125 74.55729 522.9219 74.55729Q523.71875 74.55729 524.21875 74.74479Q524.71875 74.93229 524.9531 75.21354Q525.1875 75.49479 525.28125 75.93229Q525.3281 76.197914 525.3281 76.90104L525.3281 78.30729Q525.3281 79.77604 525.3906 80.166664Q525.46875 80.55729 525.6719 80.916664L524.5625 80.916664Q524.40625 80.58854 524.3594 80.15104ZM524.2656 77.791664Q523.6875 78.02604 522.5469 78.197914Q521.8906 78.291664 521.625 78.416664Q521.3594 78.52604 521.2031 78.74479Q521.0625 78.96354 521.0625 79.24479Q521.0625 79.666664 521.375 79.947914Q521.7031 80.229164 522.3125 80.229164Q522.9219 80.229164 523.3906 79.96354Q523.875 79.697914 524.09375 79.229164Q524.2656 78.86979 524.2656 78.18229L524.2656 77.791664ZM526.875 79.05729L527.90625 78.90104Q528.0 79.52604 528.3906 79.854164Q528.7969 80.18229 529.53125 80.18229Q530.25 80.18229 530.59375 79.90104Q530.9531 79.604164 530.9531 79.197914Q530.9531 78.83854 530.6406 78.635414Q530.4219 78.49479 529.5625 78.27604Q528.40625 77.979164 527.9531 77.77604Q527.5156 77.55729 527.28125 77.18229Q527.0469 76.80729 527.0469 76.33854Q527.0469 75.93229 527.2344 75.572914Q527.4219 75.21354 527.75 74.979164Q528.0 74.80729 528.4219 74.68229Q528.84375 74.55729 529.34375 74.55729Q530.0625 74.55729 530.6094 74.77604Q531.1719 74.979164 531.4375 75.33854Q531.7031 75.697914 531.7969 76.291664L530.7656 76.43229Q530.7031 75.96354 530.3594 75.697914Q530.03125 75.416664 529.40625 75.416664Q528.6875 75.416664 528.375 75.666664Q528.0625 75.90104 528.0625 76.229164Q528.0625 76.43229 528.1875 76.58854Q528.3281 76.760414 528.59375 76.86979Q528.75 76.93229 529.53125 77.135414Q530.65625 77.447914 531.09375 77.635414Q531.53125 77.822914 531.78125 78.18229Q532.03125 78.541664 532.03125 79.08854Q532.03125 79.61979 531.71875 80.08854Q531.4219 80.541664 530.84375 80.80729Q530.2656 81.05729 529.53125 81.05729Q528.3125 81.05729 527.6719 80.55729Q527.0469 80.041664 526.875 79.05729ZM538.5469 78.916664L539.6406 79.041664Q539.3906 79.99479 538.6875 80.52604Q537.9844 81.05729 536.90625 81.05729Q535.5469 81.05729 534.7344 80.21354Q533.9375 79.36979 533.9375 77.854164Q533.9375 76.291664 534.75 75.43229Q535.5625 74.55729 536.84375 74.55729Q538.09375 74.55729 538.875 75.40104Q539.6719 76.24479 539.6719 77.791664Q539.6719 77.885414 539.6719 78.072914L535.03125 78.072914Q535.09375 79.104164 535.6094 79.65104Q536.125 80.18229 536.90625 80.18229Q537.4844 80.18229 537.8906 79.885414Q538.3125 79.572914 538.5469 78.916664ZM535.09375 77.21354L538.5625 77.21354Q538.5 76.416664 538.1719 76.02604Q537.65625 75.416664 536.8594 75.416664Q536.125 75.416664 535.625 75.90104Q535.1406 76.385414 535.09375 77.21354ZM545.3281 80.916664L545.3281 80.135414Q544.7344 81.05729 543.59375 81.05729Q542.84375 81.05729 542.21875 80.65104Q541.59375 80.229164 541.25 79.49479Q540.90625 78.760414 540.90625 77.80729Q540.90625 76.885414 541.21875 76.11979Q541.53125 75.354164 542.15625 74.96354Q542.78125 74.55729 543.5469 74.55729Q544.1094 74.55729 544.5469 74.791664Q544.9844 75.02604 545.2656 75.40104L545.2656 72.322914L546.3125 72.322914L546.3125 80.916664L545.3281 80.916664ZM542.0 77.80729Q542.0 79.010414 542.5 79.604164Q543.0 80.18229 543.6875 80.18229Q544.375 80.18229 544.8594 79.61979Q545.34375 79.05729 545.34375 77.90104Q545.34375 76.61979 544.84375 76.02604Q544.3594 75.43229 543.6406 75.43229Q542.9375 75.43229 542.46875 76.010414Q542.0 76.572914 542.0 77.80729Z" fill-rule="nonzero"/><path fill="#757575" d="M39.315624 41.534374L41.20625 42.003124Q40.6125 44.346874 39.065624 45.58125Q37.51875 46.8 35.26875 46.8Q32.95625 46.8 31.503124 45.8625Q30.065624 44.909374 29.3 43.128124Q28.55 41.33125 28.55 39.284374Q28.55 37.05 29.39375 35.39375Q30.253124 33.721874 31.83125 32.8625Q33.409374 31.9875 35.3 31.9875Q37.45625 31.9875 38.909374 33.08125Q40.378124 34.175 40.95625 36.159374L39.096874 36.596874Q38.596874 35.034374 37.64375 34.33125Q36.70625 33.6125 35.26875 33.6125Q33.6125 33.6125 32.503124 34.409374Q31.39375 35.190624 30.940624 36.534374Q30.503124 37.8625 30.503124 39.26875Q30.503124 41.096874 31.034374 42.471874Q31.565624 43.83125 32.690624 44.503124Q33.815624 45.175 35.1125 45.175Q36.70625 45.175 37.815624 44.253124Q38.925 43.33125 39.315624 41.534374ZM42.221874 41.3625Q42.221874 38.4875 43.815624 37.096874Q45.159374 35.940624 47.08125 35.940624Q49.221874 35.940624 50.565624 37.346874Q51.925 38.753124 51.925 41.221874Q51.925 43.221874 51.33125 44.378124Q50.7375 45.51875 49.58125 46.159374Q48.440624 46.784374 47.08125 46.784374Q44.89375 46.784374 43.55 45.39375Q42.221874 43.9875 42.221874 41.3625ZM44.01875 41.3625Q44.01875 43.3625 44.878124 44.346874Q45.753124 45.33125 47.08125 45.33125Q48.39375 45.33125 49.253124 44.346874Q50.128124 43.346874 50.128124 41.3Q50.128124 39.378124 49.253124 38.39375Q48.378124 37.39375 47.08125 37.39375Q45.753124 37.39375 44.878124 38.39375Q44.01875 39.378124 44.01875 41.3625ZM53.8625 46.55L53.8625 36.175L55.440624 36.175L55.440624 37.628124Q55.925 36.878124 56.7375 36.409374Q57.55 35.940624 58.58125 35.940624Q59.7375 35.940624 60.471874 36.425Q61.20625 36.89375 61.51875 37.753124Q62.753124 35.940624 64.72188 35.940624Q66.26875 35.940624 67.09688 36.8Q67.925 37.659374 67.925 39.425L67.925 46.55L66.175 46.55L66.175 40.01875Q66.175 38.95625 66.00313 38.503124Q65.83125 38.034374 65.37813 37.753124Q64.94063 37.471874 64.33125 37.471874Q63.2375 37.471874 62.503124 38.20625Q61.784374 38.925 61.784374 40.51875L61.784374 46.55L60.034374 46.55L60.034374 39.815624Q60.034374 38.64375 59.596874 38.065624Q59.175 37.471874 58.190624 37.471874Q57.45625 37.471874 56.815624 37.8625Q56.190624 38.253124 55.909374 39.003124Q55.628124 39.753124 55.628124 41.175L55.628124 46.55L53.8625 46.55ZM69.8625 50.51875L69.8625 36.175L71.47188 36.175L71.47188 37.51875Q72.03438 36.7375 72.7375 36.346874Q73.45625 35.940624 74.47188 35.940624Q75.8 35.940624 76.81563 36.628124Q77.83125 37.315624 78.34688 38.565624Q78.87813 39.8 78.87813 41.284374Q78.87813 42.878124 78.3 44.159374Q77.7375 45.425 76.64375 46.1125Q75.55 46.784374 74.34688 46.784374Q73.47188 46.784374 72.76875 46.409374Q72.08125 46.034374 71.62813 45.471874L71.62813 50.51875L69.8625 50.51875ZM71.45625 41.425Q71.45625 43.425 72.26875 44.378124Q73.08125 45.33125 74.2375 45.33125Q75.40938 45.33125 76.2375 44.346874Q77.08125 43.3625 77.08125 41.26875Q77.08125 39.3 76.25313 38.315624Q75.44063 37.315624 74.31563 37.315624Q73.19063 37.315624 72.31563 38.378124Q71.45625 39.425 71.45625 41.425ZM87.64375 45.26875Q86.65938 46.096874 85.75313 46.440624Q84.84688 46.784374 83.81563 46.784374Q82.1125 46.784374 81.19063 45.95625Q80.26875 45.1125 80.26875 43.815624Q80.26875 43.05 80.6125 42.425Q80.97188 41.8 81.53438 41.425Q82.09688 41.034374 82.8 40.83125Q83.31563 40.70625 84.3625 40.565624Q86.4875 40.315624 87.4875 39.971874Q87.50313 39.6125 87.50313 39.503124Q87.50313 38.440624 87.00313 37.9875Q86.33125 37.39375 85.00313 37.39375Q83.75313 37.39375 83.15938 37.83125Q82.58125 38.26875 82.3 39.378124L80.58125 39.14375Q80.81563 38.034374 81.34688 37.3625Q81.87813 36.675 82.89375 36.315624Q83.90938 35.940624 85.25313 35.940624Q86.58125 35.940624 87.40938 36.253124Q88.2375 36.565624 88.62813 37.05Q89.01875 37.51875 89.175 38.2375Q89.26875 38.690624 89.26875 39.8625L89.26875 42.20625Q89.26875 44.659374 89.37813 45.315624Q89.4875 45.95625 89.83125 46.55L87.9875 46.55Q87.72188 46.003124 87.64375 45.26875ZM87.4875 41.346874Q86.53438 41.7375 84.6125 42.003124Q83.53438 42.159374 83.08125 42.3625Q82.64375 42.55 82.39375 42.925Q82.14375 43.3 82.14375 43.76875Q82.14375 44.471874 82.675 44.940624Q83.20625 45.409374 84.2375 45.409374Q85.25313 45.409374 86.03438 44.971874Q86.83125 44.51875 87.20625 43.753124Q87.4875 43.14375 87.4875 41.9875L87.4875 41.346874ZM91.84688 46.55L91.84688 36.175L93.425 36.175L93.425 37.753124Q94.03438 36.64375 94.55 36.3Q95.06563 35.940624 95.675 35.940624Q96.56563 35.940624 97.4875 36.503124L96.87813 38.14375Q96.2375 37.753124 95.59688 37.753124Q95.01875 37.753124 94.55 38.1125Q94.09688 38.45625 93.89375 39.065624Q93.6125 40.003124 93.6125 41.1125L93.6125 46.55L91.84688 46.55ZM98.87813 34.253124L98.87813 32.2375L100.64375 32.2375L100.64375 34.253124L98.87813 34.253124ZM98.87813 46.55L98.87813 36.175L100.64375 36.175L100.64375 46.55L98.87813 46.55ZM102.15938 43.45625L103.90938 43.175Q104.05 44.221874 104.72188 44.784374Q105.39375 45.33125 106.59688 45.33125Q107.8 45.33125 108.37813 44.846874Q108.97188 44.346874 108.97188 43.690624Q108.97188 43.096874 108.45625 42.753124Q108.09688 42.51875 106.65938 42.159374Q104.72188 41.659374 103.97188 41.315624Q103.2375 40.95625 102.84688 40.33125Q102.45625 39.690624 102.45625 38.925Q102.45625 38.2375 102.76875 37.64375Q103.09688 37.05 103.64375 36.659374Q104.05 36.3625 104.75313 36.159374Q105.47188 35.940624 106.28438 35.940624Q107.50313 35.940624 108.425 36.3Q109.34688 36.64375 109.78438 37.253124Q110.22188 37.846874 110.39375 38.846874L108.675 39.08125Q108.55 38.284374 107.9875 37.846874Q107.425 37.39375 106.40938 37.39375Q105.19063 37.39375 104.675 37.8Q104.15938 38.190624 104.15938 38.721874Q104.15938 39.065624 104.37813 39.346874Q104.58125 39.628124 105.05 39.815624Q105.31563 39.909374 106.59688 40.253124Q108.47188 40.753124 109.20625 41.08125Q109.94063 41.39375 110.3625 42.003124Q110.78438 42.596874 110.78438 43.503124Q110.78438 44.378124 110.26875 45.159374Q109.75313 45.940624 108.78438 46.3625Q107.81563 46.784374 106.59688 46.784374Q104.58125 46.784374 103.51875 45.940624Q102.45625 45.096874 102.15938 43.45625ZM112.22188 41.3625Q112.22188 38.4875 113.81563 37.096874Q115.15938 35.940624 117.08125 35.940624Q119.22188 35.940624 120.56563 37.346874Q121.925 38.753124 121.925 41.221874Q121.925 43.221874 121.33125 44.378124Q120.7375 45.51875 119.58125 46.159374Q118.44063 46.784374 117.08125 46.784374Q114.89375 46.784374 113.55 45.39375Q112.22188 43.9875 112.22188 41.3625ZM114.01875 41.3625Q114.01875 43.3625 114.87813 44.346874Q115.75313 45.33125 117.08125 45.33125Q118.39375 45.33125 119.25313 44.346874Q120.12813 43.346874 120.12813 41.3Q120.12813 39.378124 119.25313 38.39375Q118.37813 37.39375 117.08125 37.39375Q115.75313 37.39375 114.87813 38.39375Q114.01875 39.378124 114.01875 41.3625ZM123.8625 46.55L123.8625 36.175L125.45625 36.175L125.45625 37.659374Q126.59688 35.940624 128.75313 35.940624Q129.69063 35.940624 130.47188 36.284374Q131.26875 36.6125 131.65938 37.159374Q132.05 37.70625 132.20625 38.45625Q132.3 38.95625 132.3 40.175L132.3 46.55L130.53438 46.55L130.53438 40.2375Q130.53438 39.159374 130.33125 38.628124Q130.12813 38.096874 129.59688 37.784374Q129.08125 37.471874 128.37813 37.471874Q127.25313 37.471874 126.44063 38.190624Q125.62813 38.89375 125.62813 40.878124L125.62813 46.55L123.8625 46.55ZM146.8 40.940624L146.8 39.253124L152.8625 39.2375L152.8625 44.55Q151.45625 45.675 149.97188 46.2375Q148.4875 46.8 146.925 46.8Q144.81563 46.8 143.09688 45.89375Q141.37813 44.9875 140.4875 43.284374Q139.6125 41.565624 139.6125 39.45625Q139.6125 37.3625 140.4875 35.565624Q141.3625 33.753124 143.00313 32.878124Q144.64375 31.9875 146.78438 31.9875Q148.33125 31.9875 149.58125 32.4875Q150.84688 32.9875 151.55 33.89375Q152.26875 34.784374 152.64375 36.2375L150.94063 36.70625Q150.6125 35.6125 150.12813 34.9875Q149.65938 34.3625 148.76875 33.9875Q147.87813 33.6125 146.8 33.6125Q145.4875 33.6125 144.53438 34.003124Q143.59688 34.39375 143.01875 35.05Q142.44063 35.690624 142.1125 36.45625Q141.56563 37.784374 141.56563 39.346874Q141.56563 41.253124 142.22188 42.55Q142.89375 43.83125 144.14375 44.45625Q145.40938 45.08125 146.81563 45.08125Q148.05 45.08125 149.22188 44.6125Q150.39375 44.14375 151.00313 43.596874L151.00313 40.940624L146.8 40.940624ZM155.84688 46.55L155.84688 36.175L157.425 36.175L157.425 37.753124Q158.03438 36.64375 158.55 36.3Q159.06563 35.940624 159.675 35.940624Q160.56563 35.940624 161.4875 36.503124L160.87813 38.14375Q160.2375 37.753124 159.59688 37.753124Q159.01875 37.753124 158.55 38.1125Q158.09688 38.45625 157.89375 39.065624Q157.6125 40.003124 157.6125 41.1125L157.6125 46.55L155.84688 46.55ZM169.64375 45.26875Q168.65938 46.096874 167.75313 46.440624Q166.84688 46.784374 165.81563 46.784374Q164.1125 46.784374 163.19063 45.95625Q162.26875 45.1125 162.26875 43.815624Q162.26875 43.05 162.6125 42.425Q162.97188 41.8 163.53438 41.425Q164.09688 41.034374 164.8 40.83125Q165.31563 40.70625 166.3625 40.565624Q168.4875 40.315624 169.4875 39.971874Q169.50313 39.6125 169.50313 39.503124Q169.50313 38.440624 169.00313 37.9875Q168.33125 37.39375 167.00313 37.39375Q165.75313 37.39375 165.15938 37.83125Q164.58125 38.26875 164.3 39.378124L162.58125 39.14375Q162.81563 38.034374 163.34688 37.3625Q163.87813 36.675 164.89375 36.315624Q165.90938 35.940624 167.25313 35.940624Q168.58125 35.940624 169.40938 36.253124Q170.2375 36.565624 170.62813 37.05Q171.01875 37.51875 171.175 38.2375Q171.26875 38.690624 171.26875 39.8625L171.26875 42.20625Q171.26875 44.659374 171.37813 45.315624Q171.4875 45.95625 171.83125 46.55L169.9875 46.55Q169.72188 46.003124 169.64375 45.26875ZM169.4875 41.346874Q168.53438 41.7375 166.6125 42.003124Q165.53438 42.159374 165.08125 42.3625Q164.64375 42.55 164.39375 42.925Q164.14375 43.3 164.14375 43.76875Q164.14375 44.471874 164.675 44.940624Q165.20625 45.409374 166.2375 45.409374Q167.25313 45.409374 168.03438 44.971874Q168.83125 44.51875 169.20625 43.753124Q169.4875 43.14375 169.4875 41.9875L169.4875 41.346874ZM173.8625 50.51875L173.8625 36.175L175.47188 36.175L175.47188 37.51875Q176.03438 36.7375 176.7375 36.346874Q177.45625 35.940624 178.47188 35.940624Q179.8 35.940624 180.81563 36.628124Q181.83125 37.315624 182.34688 38.565624Q182.87813 39.8 182.87813 41.284374Q182.87813 42.878124 182.3 44.159374Q181.7375 45.425 180.64375 46.1125Q179.55 46.784374 178.34688 46.784374Q177.47188 46.784374 176.76875 46.409374Q176.08125 46.034374 175.62813 45.471874L175.62813 50.51875L173.8625 50.51875ZM175.45625 41.425Q175.45625 43.425 176.26875 44.378124Q177.08125 45.33125 178.2375 45.33125Q179.40938 45.33125 180.2375 44.346874Q181.08125 43.3625 181.08125 41.26875Q181.08125 39.3 180.25313 38.315624Q179.44063 37.315624 178.31563 37.315624Q177.19063 37.315624 176.31563 38.378124Q175.45625 39.425 175.45625 41.425ZM184.8625 46.55L184.8625 32.2375L186.62813 32.2375L186.62813 37.3625Q187.8625 35.940624 189.7375 35.940624Q190.87813 35.940624 191.72188 36.39375Q192.58125 36.846874 192.94063 37.659374Q193.31563 38.45625 193.31563 39.971874L193.31563 46.55L191.56563 46.55L191.56563 39.971874Q191.56563 38.659374 190.9875 38.065624Q190.40938 37.45625 189.37813 37.45625Q188.59688 37.45625 187.89375 37.8625Q187.20625 38.26875 186.90938 38.971874Q186.62813 39.659374 186.62813 40.878124L186.62813 46.55L184.8625 46.55ZM200.22188 41.3625Q200.22188 38.4875 201.81563 37.096874Q203.15938 35.940624 205.08125 35.940624Q207.22188 35.940624 208.56563 37.346874Q209.925 38.753124 209.925 41.221874Q209.925 43.221874 209.33125 44.378124Q208.7375 45.51875 207.58125 46.159374Q206.44063 46.784374 205.08125 46.784374Q202.89375 46.784374 201.55 45.39375Q200.22188 43.9875 200.22188 41.3625ZM202.01875 41.3625Q202.01875 43.3625 202.87813 44.346874Q203.75313 45.33125 205.08125 45.33125Q206.39375 45.33125 207.25313 44.346874Q208.12813 43.346874 208.12813 41.3Q208.12813 39.378124 207.25313 38.39375Q206.37813 37.39375 205.08125 37.39375Q203.75313 37.39375 202.87813 38.39375Q202.01875 39.378124 202.01875 41.3625ZM212.28438 46.55L212.28438 37.55L210.7375 37.55L210.7375 36.175L212.28438 36.175L212.28438 35.08125Q212.28438 34.034374 212.47188 33.51875Q212.72188 32.83125 213.3625 32.409374Q214.00313 31.9875 215.15938 31.9875Q215.90938 31.9875 216.8 32.159374L216.53438 33.690624Q215.9875 33.596874 215.50313 33.596874Q214.70625 33.596874 214.3625 33.940624Q214.03438 34.284374 214.03438 35.221874L214.03438 36.175L216.06563 36.175L216.06563 37.55L214.03438 37.55L214.03438 46.55L212.28438 46.55ZM224.09688 46.55L224.09688 32.2375L229.4875 32.2375Q230.925 32.2375 231.675 32.3625Q232.72188 32.55 233.44063 33.05Q234.15938 33.534374 234.58125 34.425Q235.01875 35.315624 235.01875 36.378124Q235.01875 38.20625 233.84688 39.471874Q232.69063 40.721874 229.65938 40.721874L225.9875 40.721874L225.9875 46.55L224.09688 46.55ZM225.9875 39.034374L229.69063 39.034374Q231.51875 39.034374 232.28438 38.3625Q233.06563 37.675 233.06563 36.425Q233.06563 35.534374 232.6125 34.89375Q232.15938 34.253124 231.425 34.05Q230.94063 33.925 229.64375 33.925L225.9875 33.925L225.9875 39.034374ZM243.64375 45.26875Q242.65938 46.096874 241.75313 46.440624Q240.84688 46.784374 239.81563 46.784374Q238.1125 46.784374 237.19063 45.95625Q236.26875 45.1125 236.26875 43.815624Q236.26875 43.05 236.6125 42.425Q236.97188 41.8 237.53438 41.425Q238.09688 41.034374 238.8 40.83125Q239.31563 40.70625 240.3625 40.565624Q242.4875 40.315624 243.4875 39.971874Q243.50313 39.6125 243.50313 39.503124Q243.50313 38.440624 243.00313 37.9875Q242.33125 37.39375 241.00313 37.39375Q239.75313 37.39375 239.15938 37.83125Q238.58125 38.26875 238.3 39.378124L236.58125 39.14375Q236.81563 38.034374 237.34688 37.3625Q237.87813 36.675 238.89375 36.315624Q239.90938 35.940624 241.25313 35.940624Q242.58125 35.940624 243.40938 36.253124Q244.2375 36.565624 244.62813 37.05Q245.01875 37.51875 245.175 38.2375Q245.26875 38.690624 245.26875 39.8625L245.26875 42.20625Q245.26875 44.659374 245.37813 45.315624Q245.4875 45.95625 245.83125 46.55L243.9875 46.55Q243.72188 46.003124 243.64375 45.26875ZM243.4875 41.346874Q242.53438 41.7375 240.6125 42.003124Q239.53438 42.159374 239.08125 42.3625Q238.64375 42.55 238.39375 42.925Q238.14375 43.3 238.14375 43.76875Q238.14375 44.471874 238.675 44.940624Q239.20625 45.409374 240.2375 45.409374Q241.25313 45.409374 242.03438 44.971874Q242.83125 44.51875 243.20625 43.753124Q243.4875 43.14375 243.4875 41.9875L243.4875 41.346874ZM247.78438 50.55L247.59688 48.89375Q248.175 49.05 248.59688 49.05Q249.19063 49.05 249.53438 48.846874Q249.89375 48.659374 250.1125 48.315624Q250.28438 48.05 250.65938 47.003124Q250.70625 46.846874 250.81563 46.565624L246.87813 36.175L248.76875 36.175L250.925 42.190624Q251.34688 43.33125 251.675 44.58125Q251.9875 43.378124 252.39375 42.221874L254.6125 36.175L256.3781 36.175L252.425 46.721874Q251.8 48.440624 251.44063 49.08125Q250.97188 49.95625 250.3625 50.346874Q249.76875 50.753124 248.925 50.753124Q248.40938 50.753124 247.78438 50.55ZM257.83124 46.55L257.83124 32.2375L259.58124 32.2375L259.58124 46.55L257.83124 46.55ZM261.22186 41.3625Q261.22186 38.4875 262.8156 37.096874Q264.15936 35.940624 266.08124 35.940624Q268.22186 35.940624 269.5656 37.346874Q270.925 38.753124 270.925 41.221874Q270.925 43.221874 270.33124 44.378124Q269.7375 45.51875 268.58124 46.159374Q267.4406 46.784374 266.08124 46.784374Q263.89374 46.784374 262.55 45.39375Q261.22186 43.9875 261.22186 41.3625ZM263.01874 41.3625Q263.01874 43.3625 263.8781 44.346874Q264.7531 45.33125 266.08124 45.33125Q267.39374 45.33125 268.2531 44.346874Q269.1281 43.346874 269.1281 41.3Q269.1281 39.378124 268.2531 38.39375Q267.3781 37.39375 266.08124 37.39375Q264.7531 37.39375 263.8781 38.39375Q263.01874 39.378124 263.01874 41.3625ZM279.64374 45.26875Q278.65936 46.096874 277.7531 46.440624Q276.84686 46.784374 275.8156 46.784374Q274.1125 46.784374 273.1906 45.95625Q272.26874 45.1125 272.26874 43.815624Q272.26874 43.05 272.6125 42.425Q272.97186 41.8 273.53436 41.425Q274.09686 41.034374 274.8 40.83125Q275.3156 40.70625 276.3625 40.565624Q278.4875 40.315624 279.4875 39.971874Q279.5031 39.6125 279.5031 39.503124Q279.5031 38.440624 279.0031 37.9875Q278.33124 37.39375 277.0031 37.39375Q275.7531 37.39375 275.15936 37.83125Q274.58124 38.26875 274.3 39.378124L272.58124 39.14375Q272.8156 38.034374 273.34686 37.3625Q273.8781 36.675 274.89374 36.315624Q275.90936 35.940624 277.2531 35.940624Q278.58124 35.940624 279.40936 36.253124Q280.2375 36.565624 280.6281 37.05Q281.01874 37.51875 281.175 38.2375Q281.26874 38.690624 281.26874 39.8625L281.26874 42.20625Q281.26874 44.659374 281.3781 45.315624Q281.4875 45.95625 281.83124 46.55L279.9875 46.55Q279.72186 46.003124 279.64374 45.26875ZM279.4875 41.346874Q278.53436 41.7375 276.6125 42.003124Q275.53436 42.159374 275.08124 42.3625Q274.64374 42.55 274.39374 42.925Q274.14374 43.3 274.14374 43.76875Q274.14374 44.471874 274.675 44.940624Q275.20624 45.409374 276.2375 45.409374Q277.2531 45.409374 278.03436 44.971874Q278.83124 44.51875 279.20624 43.753124Q279.4875 43.14375 279.4875 41.9875L279.4875 41.346874ZM290.59686 46.55L290.59686 45.2375Q289.6125 46.784374 287.6906 46.784374Q286.45624 46.784374 285.40936 46.096874Q284.3781 45.409374 283.8 44.190624Q283.2375 42.971874 283.2375 41.378124Q283.2375 39.815624 283.7531 38.55Q284.26874 37.284374 285.3 36.6125Q286.34686 35.940624 287.6125 35.940624Q288.55 35.940624 289.28436 36.346874Q290.01874 36.7375 290.4875 37.3625L290.4875 32.2375L292.22186 32.2375L292.22186 46.55L290.59686 46.55ZM285.03436 41.378124Q285.03436 43.3625 285.8781 44.346874Q286.72186 45.33125 287.8625 45.33125Q289.01874 45.33125 289.8156 44.39375Q290.6281 43.45625 290.6281 41.51875Q290.6281 39.39375 289.8 38.39375Q288.9875 37.39375 287.78436 37.39375Q286.6125 37.39375 285.8156 38.3625Q285.03436 39.315624 285.03436 41.378124ZM299.51874 46.55L305.01874 32.2375L307.0656 32.2375L312.925 46.55L310.76874 46.55L309.09686 42.20625L303.1125 42.20625L301.53436 46.55L299.51874 46.55ZM303.65936 40.675L308.5031 40.675L307.01874 36.70625Q306.33124 34.89375 306.0031 33.7375Q305.72186 35.1125 305.22186 36.471874L303.65936 40.675ZM320.64374 42.753124L322.3625 42.971874Q322.08124 44.76875 320.90936 45.784374Q319.7531 46.784374 318.05 46.784374Q315.925 46.784374 314.6281 45.39375Q313.33124 44.003124 313.33124 41.409374Q313.33124 39.721874 313.8781 38.471874Q314.4406 37.20625 315.58124 36.58125Q316.72186 35.940624 318.0656 35.940624Q319.7531 35.940624 320.8156 36.8Q321.89374 37.659374 322.20624 39.221874L320.4875 39.4875Q320.2531 38.440624 319.6281 37.925Q319.0031 37.39375 318.1281 37.39375Q316.8 37.39375 315.97186 38.346874Q315.14374 39.3 315.14374 41.346874Q315.14374 43.440624 315.9406 44.39375Q316.7375 45.33125 318.03436 45.33125Q319.0656 45.33125 319.7531 44.70625Q320.45624 44.065624 320.64374 42.753124ZM330.64374 42.753124L332.3625 42.971874Q332.08124 44.76875 330.90936 45.784374Q329.7531 46.784374 328.05 46.784374Q325.925 46.784374 324.6281 45.39375Q323.33124 44.003124 323.33124 41.409374Q323.33124 39.721874 323.8781 38.471874Q324.4406 37.20625 325.58124 36.58125Q326.72186 35.940624 328.0656 35.940624Q329.7531 35.940624 330.8156 36.8Q331.89374 37.659374 332.20624 39.221874L330.4875 39.4875Q330.2531 38.440624 329.6281 37.925Q329.0031 37.39375 328.1281 37.39375Q326.8 37.39375 325.97186 38.346874Q325.14374 39.3 325.14374 41.346874Q325.14374 43.440624 325.9406 44.39375Q326.7375 45.33125 328.03436 45.33125Q329.0656 45.33125 329.7531 44.70625Q330.45624 44.065624 330.64374 42.753124ZM340.97186 43.20625L342.78436 43.440624Q342.3625 45.01875 341.1906 45.909374Q340.03436 46.784374 338.22186 46.784374Q335.95624 46.784374 334.6125 45.39375Q333.28436 43.9875 333.28436 41.45625Q333.28436 38.83125 334.6281 37.39375Q335.97186 35.940624 338.1281 35.940624Q340.20624 35.940624 341.51874 37.3625Q342.84686 38.76875 342.84686 41.346874Q342.84686 41.503124 342.83124 41.815624L335.09686 41.815624Q335.1906 43.51875 336.0656 44.425Q336.9406 45.33125 338.2375 45.33125Q339.20624 45.33125 339.8781 44.83125Q340.5656 44.315624 340.97186 43.20625ZM335.1906 40.3625L340.9875 40.3625Q340.8781 39.065624 340.33124 38.409374Q339.4875 37.39375 338.14374 37.39375Q336.9406 37.39375 336.1125 38.20625Q335.28436 39.003124 335.1906 40.3625ZM344.83124 46.55L344.83124 32.2375L346.58124 32.2375L346.58124 46.55L344.83124 46.55ZM355.97186 43.20625L357.78436 43.440624Q357.3625 45.01875 356.1906 45.909374Q355.03436 46.784374 353.22186 46.784374Q350.95624 46.784374 349.6125 45.39375Q348.28436 43.9875 348.28436 41.45625Q348.28436 38.83125 349.6281 37.39375Q350.97186 35.940624 353.1281 35.940624Q355.20624 35.940624 356.51874 37.3625Q357.84686 38.76875 357.84686 41.346874Q357.84686 41.503124 357.83124 41.815624L350.09686 41.815624Q350.1906 43.51875 351.0656 44.425Q351.9406 45.33125 353.2375 45.33125Q354.20624 45.33125 354.8781 44.83125Q355.5656 44.315624 355.97186 43.20625ZM350.1906 40.3625L355.9875 40.3625Q355.8781 39.065624 355.33124 38.409374Q354.4875 37.39375 353.14374 37.39375Q351.9406 37.39375 351.1125 38.20625Q350.28436 39.003124 350.1906 40.3625ZM359.84686 46.55L359.84686 36.175L361.425 36.175L361.425 37.753124Q362.03436 36.64375 362.55 36.3Q363.0656 35.940624 363.675 35.940624Q364.5656 35.940624 365.4875 36.503124L364.8781 38.14375Q364.2375 37.753124 363.59686 37.753124Q363.01874 37.753124 362.55 38.1125Q362.09686 38.45625 361.89374 39.065624Q361.6125 40.003124 361.6125 41.1125L361.6125 46.55L359.84686 46.55ZM373.64374 45.26875Q372.65936 46.096874 371.7531 46.440624Q370.84686 46.784374 369.8156 46.784374Q368.1125 46.784374 367.1906 45.95625Q366.26874 45.1125 366.26874 43.815624Q366.26874 43.05 366.6125 42.425Q366.97186 41.8 367.53436 41.425Q368.09686 41.034374 368.8 40.83125Q369.3156 40.70625 370.3625 40.565624Q372.4875 40.315624 373.4875 39.971874Q373.5031 39.6125 373.5031 39.503124Q373.5031 38.440624 373.0031 37.9875Q372.33124 37.39375 371.0031 37.39375Q369.7531 37.39375 369.15936 37.83125Q368.58124 38.26875 368.3 39.378124L366.58124 39.14375Q366.8156 38.034374 367.34686 37.3625Q367.8781 36.675 368.89374 36.315624Q369.90936 35.940624 371.2531 35.940624Q372.58124 35.940624 373.40936 36.253124Q374.2375 36.565624 374.6281 37.05Q375.01874 37.51875 375.175 38.2375Q375.26874 38.690624 375.26874 39.8625L375.26874 42.20625Q375.26874 44.659374 375.3781 45.315624Q375.4875 45.95625 375.83124 46.55L373.9875 46.55Q373.72186 46.003124 373.64374 45.26875ZM373.4875 41.346874Q372.53436 41.7375 370.6125 42.003124Q369.53436 42.159374 369.08124 42.3625Q368.64374 42.55 368.39374 42.925Q368.14374 43.3 368.14374 43.76875Q368.14374 44.471874 368.675 44.940624Q369.20624 45.409374 370.2375 45.409374Q371.2531 45.409374 372.03436 44.971874Q372.83124 44.51875 373.20624 43.753124Q373.4875 43.14375 373.4875 41.9875L373.4875 41.346874ZM381.70624 44.971874L381.95624 46.534374Q381.22186 46.690624 380.6281 46.690624Q379.675 46.690624 379.14374 46.39375Q378.6281 46.08125 378.40936 45.596874Q378.1906 45.096874 378.1906 43.51875L378.1906 37.55L376.90936 37.55L376.90936 36.175L378.1906 36.175L378.1906 33.6125L379.9406 32.55L379.9406 36.175L381.70624 36.175L381.70624 37.55L379.9406 37.55L379.9406 43.6125Q379.9406 44.3625 380.03436 44.58125Q380.1281 44.784374 380.33124 44.925Q380.55 45.05 380.9406 45.05Q381.22186 45.05 381.70624 44.971874ZM383.8781 34.253124L383.8781 32.2375L385.64374 32.2375L385.64374 34.253124L383.8781 34.253124ZM383.8781 46.55L383.8781 36.175L385.64374 36.175L385.64374 46.55L383.8781 46.55ZM387.22186 41.3625Q387.22186 38.4875 388.8156 37.096874Q390.15936 35.940624 392.08124 35.940624Q394.22186 35.940624 395.5656 37.346874Q396.925 38.753124 396.925 41.221874Q396.925 43.221874 396.33124 44.378124Q395.7375 45.51875 394.58124 46.159374Q393.4406 46.784374 392.08124 46.784374Q389.89374 46.784374 388.55 45.39375Q387.22186 43.9875 387.22186 41.3625ZM389.01874 41.3625Q389.01874 43.3625 389.8781 44.346874Q390.7531 45.33125 392.08124 45.33125Q393.39374 45.33125 394.2531 44.346874Q395.1281 43.346874 395.1281 41.3Q395.1281 39.378124 394.2531 38.39375Q393.3781 37.39375 392.08124 37.39375Q390.7531 37.39375 389.8781 38.39375Q389.01874 39.378124 389.01874 41.3625ZM398.8625 46.55L398.8625 36.175L400.45624 36.175L400.45624 37.659374Q401.59686 35.940624 403.7531 35.940624Q404.6906 35.940624 405.47186 36.284374Q406.26874 36.6125 406.65936 37.159374Q407.05 37.70625 407.20624 38.45625Q407.3 38.95625 407.3 40.175L407.3 46.55L405.53436 46.55L405.53436 40.2375Q405.53436 39.159374 405.33124 38.628124Q405.1281 38.096874 404.59686 37.784374Q404.08124 37.471874 403.3781 37.471874Q402.2531 37.471874 401.4406 38.190624Q400.6281 38.89375 400.6281 40.878124L400.6281 46.55L398.8625 46.55ZM418.22186 50.753124Q416.76874 48.925 415.76874 46.471874Q414.76874 44.003124 414.76874 41.3625Q414.76874 39.034374 415.51874 36.909374Q416.39374 34.440624 418.22186 31.9875L419.4875 31.9875Q418.3 34.01875 417.925 34.89375Q417.33124 36.2375 416.9875 37.70625Q416.5656 39.534374 416.5656 41.378124Q416.5656 46.065624 419.4875 50.753124L418.22186 50.753124ZM422.1906 46.55L422.1906 32.2375L431.84686 32.2375L431.84686 33.925L424.08124 33.925L424.08124 38.3625L430.8 38.3625L430.8 40.05L424.08124 40.05L424.08124 46.55L422.1906 46.55ZM433.22186 41.3625Q433.22186 38.4875 434.8156 37.096874Q436.15936 35.940624 438.08124 35.940624Q440.22186 35.940624 441.5656 37.346874Q442.925 38.753124 442.925 41.221874Q442.925 43.221874 442.33124 44.378124Q441.7375 45.51875 440.58124 46.159374Q439.4406 46.784374 438.08124 46.784374Q435.89374 46.784374 434.55 45.39375Q433.22186 43.9875 433.22186 41.3625ZM435.01874 41.3625Q435.01874 43.3625 435.8781 44.346874Q436.7531 45.33125 438.08124 45.33125Q439.39374 45.33125 440.2531 44.346874Q441.1281 43.346874 441.1281 41.3Q441.1281 39.378124 440.2531 38.39375Q439.3781 37.39375 438.08124 37.39375Q436.7531 37.39375 435.8781 38.39375Q435.01874 39.378124 435.01874 41.3625ZM444.84686 46.55L444.84686 36.175L446.425 36.175L446.425 37.753124Q447.03436 36.64375 447.55 36.3Q448.0656 35.940624 448.675 35.940624Q449.5656 35.940624 450.4875 36.503124L449.8781 38.14375Q449.2375 37.753124 448.59686 37.753124Q448.01874 37.753124 447.55 38.1125Q447.09686 38.45625 446.89374 39.065624Q446.6125 40.003124 446.6125 41.1125L446.6125 46.55L444.84686 46.55ZM458.64374 42.753124L460.3625 42.971874Q460.08124 44.76875 458.90936 45.784374Q457.7531 46.784374 456.05 46.784374Q453.925 46.784374 452.6281 45.39375Q451.33124 44.003124 451.33124 41.409374Q451.33124 39.721874 451.8781 38.471874Q452.4406 37.20625 453.58124 36.58125Q454.72186 35.940624 456.0656 35.940624Q457.7531 35.940624 458.8156 36.8Q459.89374 37.659374 460.20624 39.221874L458.4875 39.4875Q458.2531 38.440624 457.6281 37.925Q457.0031 37.39375 456.1281 37.39375Q454.8 37.39375 453.97186 38.346874Q453.14374 39.3 453.14374 41.346874Q453.14374 43.440624 453.9406 44.39375Q454.7375 45.33125 456.03436 45.33125Q457.0656 45.33125 457.7531 44.70625Q458.45624 44.065624 458.64374 42.753124ZM468.97186 43.20625L470.78436 43.440624Q470.3625 45.01875 469.1906 45.909374Q468.03436 46.784374 466.22186 46.784374Q463.95624 46.784374 462.6125 45.39375Q461.28436 43.9875 461.28436 41.45625Q461.28436 38.83125 462.6281 37.39375Q463.97186 35.940624 466.1281 35.940624Q468.20624 35.940624 469.51874 37.3625Q470.84686 38.76875 470.84686 41.346874Q470.84686 41.503124 470.83124 41.815624L463.09686 41.815624Q463.1906 43.51875 464.0656 44.425Q464.9406 45.33125 466.2375 45.33125Q467.20624 45.33125 467.8781 44.83125Q468.5656 44.315624 468.97186 43.20625ZM463.1906 40.3625L468.9875 40.3625Q468.8781 39.065624 468.33124 38.409374Q467.4875 37.39375 466.14374 37.39375Q464.9406 37.39375 464.1125 38.20625Q463.28436 39.003124 463.1906 40.3625ZM474.01874 50.753124L472.76874 50.753124Q475.675 46.065624 475.675 41.378124Q475.675 39.534374 475.26874 37.7375Q474.925 36.26875 474.33124 34.925Q473.95624 34.034374 472.76874 31.9875L474.01874 31.9875Q475.8625 34.440624 476.7375 36.909374Q477.4875 39.034374 477.4875 41.3625Q477.4875 44.003124 476.47186 46.471874Q475.47186 48.925 474.01874 50.753124ZM486.28436 46.55L486.28436 37.55L484.7375 37.55L484.7375 36.175L486.28436 36.175L486.28436 35.08125Q486.28436 34.034374 486.47186 33.51875Q486.72186 32.83125 487.3625 32.409374Q488.0031 31.9875 489.15936 31.9875Q489.90936 31.9875 490.8 32.159374L490.53436 33.690624Q489.9875 33.596874 489.5031 33.596874Q488.70624 33.596874 488.3625 33.940624Q488.03436 34.284374 488.03436 35.221874L488.03436 36.175L490.0656 36.175L490.0656 37.55L488.03436 37.55L488.03436 46.55L486.28436 46.55ZM491.22186 41.3625Q491.22186 38.4875 492.8156 37.096874Q494.15936 35.940624 496.08124 35.940624Q498.22186 35.940624 499.5656 37.346874Q500.925 38.753124 500.925 41.221874Q500.925 43.221874 500.33124 44.378124Q499.7375 45.51875 498.58124 46.159374Q497.4406 46.784374 496.08124 46.784374Q493.89374 46.784374 492.55 45.39375Q491.22186 43.9875 491.22186 41.3625ZM493.01874 41.3625Q493.01874 43.3625 493.8781 44.346874Q494.7531 45.33125 496.08124 45.33125Q497.39374 45.33125 498.2531 44.346874Q499.1281 43.346874 499.1281 41.3Q499.1281 39.378124 498.2531 38.39375Q497.3781 37.39375 496.08124 37.39375Q494.7531 37.39375 493.8781 38.39375Q493.01874 39.378124 493.01874 41.3625ZM502.84686 46.55L502.84686 36.175L504.425 36.175L504.425 37.753124Q505.03436 36.64375 505.55 36.3Q506.0656 35.940624 506.675 35.940624Q507.5656 35.940624 508.4875 36.503124L507.8781 38.14375Q507.2375 37.753124 506.59686 37.753124Q506.01874 37.753124 505.55 38.1125Q505.09686 38.45625 504.89374 39.065624Q504.6125 40.003124 504.6125 41.1125L504.6125 46.55L502.84686 46.55ZM519.7375 46.55L519.7375 33.925L515.01874 33.925L515.01874 32.2375L526.3625 32.2375L526.3625 33.925L521.6281 33.925L521.6281 46.55L519.7375 46.55ZM529.78436 46.55L526.6125 36.175L528.425 36.175L530.08124 42.159374L530.6906 44.39375Q530.7375 44.221874 531.22186 42.253124L532.8781 36.175L534.6906 36.175L536.2375 42.190624L536.7531 44.175L537.34686 42.175L539.1281 36.175L540.83124 36.175L537.59686 46.55L535.76874 46.55L534.1125 40.33125L533.72186 38.565624L531.6125 46.55L529.78436 46.55ZM542.22186 41.3625Q542.22186 38.4875 543.8156 37.096874Q545.15936 35.940624 547.08124 35.940624Q549.22186 35.940624 550.5656 37.346874Q551.925 38.753124 551.925 41.221874Q551.925 43.221874 551.33124 44.378124Q550.7375 45.51875 549.58124 46.159374Q548.4406 46.784374 547.08124 46.784374Q544.89374 46.784374 543.55 45.39375Q542.22186 43.9875 542.22186 41.3625ZM544.01874 41.3625Q544.01874 43.3625 544.8781 44.346874Q545.7531 45.33125 547.08124 45.33125Q548.39374 45.33125 549.2531 44.346874Q550.1281 43.346874 550.1281 41.3Q550.1281 39.378124 549.2531 38.39375Q548.3781 37.39375 547.08124 37.39375Q545.7531 37.39375 544.8781 38.39375Q544.01874 39.378124 544.01874 41.3625ZM560.09686 46.55L560.09686 32.2375L565.01874 32.2375Q566.6906 32.2375 567.58124 32.440624Q568.8 32.721874 569.675 33.45625Q570.8 34.425 571.3625 35.909374Q571.925 37.39375 571.925 39.315624Q571.925 40.940624 571.55 42.20625Q571.175 43.45625 570.5656 44.284374Q569.97186 45.1125 569.26874 45.596874Q568.5656 46.065624 567.5656 46.315624Q566.5656 46.55 565.2531 46.55L560.09686 46.55ZM561.9875 44.8625L565.05 44.8625Q566.45624 44.8625 567.2531 44.596874Q568.0656 44.33125 568.55 43.846874Q569.22186 43.175 569.59686 42.05Q569.97186 40.909374 569.97186 39.284374Q569.97186 37.034374 569.2375 35.83125Q568.5031 34.628124 567.4406 34.221874Q566.6906 33.925 565.0031 33.925L561.9875 33.925L561.9875 44.8625ZM580.97186 43.20625L582.78436 43.440624Q582.3625 45.01875 581.1906 45.909374Q580.03436 46.784374 578.22186 46.784374Q575.95624 46.784374 574.6125 45.39375Q573.28436 43.9875 573.28436 41.45625Q573.28436 38.83125 574.6281 37.39375Q575.97186 35.940624 578.1281 35.940624Q580.20624 35.940624 581.51874 37.3625Q582.84686 38.76875 582.84686 41.346874Q582.84686 41.503124 582.83124 41.815624L575.09686 41.815624Q575.1906 43.51875 576.0656 44.425Q576.9406 45.33125 578.2375 45.33125Q579.20624 45.33125 579.8781 44.83125Q580.5656 44.315624 580.97186 43.20625ZM575.1906 40.3625L580.9875 40.3625Q580.8781 39.065624 580.33124 38.409374Q579.4875 37.39375 578.14374 37.39375Q576.9406 37.39375 576.1125 38.20625Q575.28436 39.003124 575.1906 40.3625ZM584.15936 43.45625L585.90936 43.175Q586.05 44.221874 586.72186 44.784374Q587.39374 45.33125 588.59686 45.33125Q589.8 45.33125 590.3781 44.846874Q590.97186 44.346874 590.97186 43.690624Q590.97186 43.096874 590.45624 42.753124Q590.09686 42.51875 588.65936 42.159374Q586.72186 41.659374 585.97186 41.315624Q585.2375 40.95625 584.84686 40.33125Q584.45624 39.690624 584.45624 38.925Q584.45624 38.2375 584.76874 37.64375Q585.09686 37.05 585.64374 36.659374Q586.05 36.3625 586.7531 36.159374Q587.47186 35.940624 588.28436 35.940624Q589.5031 35.940624 590.425 36.3Q591.34686 36.64375 591.78436 37.253124Q592.22186 37.846874 592.39374 38.846874L590.675 39.08125Q590.55 38.284374 589.9875 37.846874Q589.425 37.39375 588.40936 37.39375Q587.1906 37.39375 586.675 37.8Q586.15936 38.190624 586.15936 38.721874Q586.15936 39.065624 586.3781 39.346874Q586.58124 39.628124 587.05 39.815624Q587.3156 39.909374 588.59686 40.253124Q590.47186 40.753124 591.20624 41.08125Q591.9406 41.39375 592.3625 42.003124Q592.78436 42.596874 592.78436 43.503124Q592.78436 44.378124 592.26874 45.159374Q591.7531 45.940624 590.78436 46.3625Q589.8156 46.784374 588.59686 46.784374Q586.58124 46.784374 585.51874 45.940624Q584.45624 45.096874 584.15936 43.45625ZM594.8781 34.253124L594.8781 32.2375L596.64374 32.2375L596.64374 34.253124L594.8781 34.253124ZM594.8781 46.55L594.8781 36.175L596.64374 36.175L596.64374 46.55L594.8781 46.55ZM598.55 47.409374L600.2531 47.659374Q600.3625 48.45625 600.84686 48.815624Q601.5031 49.3 602.64374 49.3Q603.8625 49.3 604.51874 48.815624Q605.1906 48.33125 605.425 47.45625Q605.5656 46.909374 605.55 45.190624Q604.39374 46.55 602.675 46.55Q600.53436 46.55 599.3625 45.003124Q598.1906 43.45625 598.1906 41.3Q598.1906 39.815624 598.72186 38.565624Q599.26874 37.315624 600.28436 36.628124Q601.3156 35.940624 602.6906 35.940624Q604.51874 35.940624 605.72186 37.425L605.72186 36.175L607.33124 36.175L607.33124 45.14375Q607.33124 47.565624 606.83124 48.565624Q606.34686 49.58125 605.26874 50.159374Q604.20624 50.753124 602.64374 50.753124Q600.8 50.753124 599.64374 49.925Q598.5031 49.096874 598.55 47.409374ZM600.0031 41.175Q600.0031 43.221874 600.8156 44.159374Q601.6281 45.096874 602.84686 45.096874Q604.05 45.096874 604.8625 44.159374Q605.6906 43.221874 605.6906 41.2375Q605.6906 39.33125 604.84686 38.3625Q604.0031 37.39375 602.8156 37.39375Q601.64374 37.39375 600.8156 38.346874Q600.0031 39.3 600.0031 41.175ZM609.8625 46.55L609.8625 36.175L611.45624 36.175L611.45624 37.659374Q612.59686 35.940624 614.7531 35.940624Q615.6906 35.940624 616.47186 36.284374Q617.26874 36.6125 617.65936 37.159374Q618.05 37.70625 618.20624 38.45625Q618.3 38.95625 618.3 40.175L618.3 46.55L616.53436 46.55L616.53436 40.2375Q616.53436 39.159374 616.33124 38.628124Q616.1281 38.096874 615.59686 37.784374Q615.08124 37.471874 614.3781 37.471874Q613.2531 37.471874 612.4406 38.190624Q611.6281 38.89375 611.6281 40.878124L611.6281 46.55L609.8625 46.55ZM619.15936 43.45625L620.90936 43.175Q621.05 44.221874 621.72186 44.784374Q622.39374 45.33125 623.59686 45.33125Q624.8 45.33125 625.3781 44.846874Q625.97186 44.346874 625.97186 43.690624Q625.97186 43.096874 625.45624 42.753124Q625.09686 42.51875 623.65936 42.159374Q621.72186 41.659374 620.97186 41.315624Q620.2375 40.95625 619.84686 40.33125Q619.45624 39.690624 619.45624 38.925Q619.45624 38.2375 619.76874 37.64375Q620.09686 37.05 620.64374 36.659374Q621.05 36.3625 621.7531 36.159374Q622.47186 35.940624 623.28436 35.940624Q624.5031 35.940624 625.425 36.3Q626.34686 36.64375 626.78436 37.253124Q627.22186 37.846874 627.39374 38.846874L625.675 39.08125Q625.55 38.284374 624.9875 37.846874Q624.425 37.39375 623.40936 37.39375Q622.1906 37.39375 621.675 37.8Q621.15936 38.190624 621.15936 38.721874Q621.15936 39.065624 621.3781 39.346874Q621.58124 39.628124 622.05 39.815624Q622.3156 39.909374 623.59686 40.253124Q625.47186 40.753124 626.20624 41.08125Q626.9406 41.39375 627.3625 42.003124Q627.78436 42.596874 627.78436 43.503124Q627.78436 44.378124 627.26874 45.159374Q626.7531 45.940624 625.78436 46.3625Q624.8156 46.784374 623.59686 46.784374Q621.58124 46.784374 620.51874 45.940624Q619.45624 45.096874 619.15936 43.45625ZM636.09686 46.55L636.09686 32.2375L641.01874 32.2375Q642.6906 32.2375 643.58124 32.440624Q644.8 32.721874 645.675 33.45625Q646.8 34.425 647.3625 35.909374Q647.925 37.39375 647.925 39.315624Q647.925 40.940624 647.55 42.20625Q647.175 43.45625 646.5656 44.284374Q645.97186 45.1125 645.26874 45.596874Q644.5656 46.065624 643.5656 46.315624Q642.5656 46.55 641.2531 46.55L636.09686 46.55ZM637.9875 44.8625L641.05 44.8625Q642.45624 44.8625 643.2531 44.596874Q644.0656 44.33125 644.55 43.846874Q645.22186 43.175 645.59686 42.05Q645.97186 40.909374 645.97186 39.284374Q645.97186 37.034374 645.2375 35.83125Q644.5031 34.628124 643.4406 34.221874Q642.6906 33.925 641.0031 33.925L637.9875 33.925L637.9875 44.8625ZM656.65936 46.55L656.65936 45.01875Q655.45624 46.784374 653.3781 46.784374Q652.45624 46.784374 651.65936 46.440624Q650.8625 46.08125 650.47186 45.55Q650.09686 45.01875 649.9406 44.2375Q649.83124 43.721874 649.83124 42.596874L649.83124 36.175L651.58124 36.175L651.58124 41.925Q651.58124 43.3 651.6906 43.784374Q651.8625 44.471874 652.39374 44.878124Q652.9406 45.26875 653.72186 45.26875Q654.51874 45.26875 655.20624 44.8625Q655.90936 44.45625 656.1906 43.76875Q656.4875 43.065624 656.4875 41.7375L656.4875 36.175L658.2375 36.175L658.2375 46.55L656.65936 46.55ZM659.84686 46.55L659.84686 36.175L661.425 36.175L661.425 37.753124Q662.03436 36.64375 662.55 36.3Q663.0656 35.940624 663.675 35.940624Q664.5656 35.940624 665.4875 36.503124L664.8781 38.14375Q664.2375 37.753124 663.59686 37.753124Q663.01874 37.753124 662.55 38.1125Q662.09686 38.45625 661.89374 39.065624Q661.6125 40.003124 661.6125 41.1125L661.6125 46.55L659.84686 46.55ZM666.8781 34.253124L666.8781 32.2375L668.64374 32.2375L668.64374 34.253124L666.8781 34.253124ZM666.8781 46.55L666.8781 36.175L668.64374 36.175L668.64374 46.55L666.8781 46.55ZM670.8625 46.55L670.8625 36.175L672.45624 36.175L672.45624 37.659374Q673.59686 35.940624 675.7531 35.940624Q676.6906 35.940624 677.47186 36.284374Q678.26874 36.6125 678.65936 37.159374Q679.05 37.70625 679.20624 38.45625Q679.3 38.95625 679.3 40.175L679.3 46.55L677.53436 46.55L677.53436 40.2375Q677.53436 39.159374 677.33124 38.628124Q677.1281 38.096874 676.59686 37.784374Q676.08124 37.471874 675.3781 37.471874Q674.2531 37.471874 673.4406 38.190624Q672.6281 38.89375 672.6281 40.878124L672.6281 46.55L670.8625 46.55ZM680.55 47.409374L682.2531 47.659374Q682.3625 48.45625 682.84686 48.815624Q683.5031 49.3 684.64374 49.3Q685.8625 49.3 686.51874 48.815624Q687.1906 48.33125 687.425 47.45625Q687.5656 46.909374 687.55 45.190624Q686.39374 46.55 684.675 46.55Q682.53436 46.55 681.3625 45.003124Q680.1906 43.45625 680.1906 41.3Q680.1906 39.815624 680.72186 38.565624Q681.26874 37.315624 682.28436 36.628124Q683.3156 35.940624 684.6906 35.940624Q686.51874 35.940624 687.72186 37.425L687.72186 36.175L689.33124 36.175L689.33124 45.14375Q689.33124 47.565624 688.83124 48.565624Q688.34686 49.58125 687.26874 50.159374Q686.20624 50.753124 684.64374 50.753124Q682.8 50.753124 681.64374 49.925Q680.5031 49.096874 680.55 47.409374ZM682.0031 41.175Q682.0031 43.221874 682.8156 44.159374Q683.6281 45.096874 684.84686 45.096874Q686.05 45.096874 686.8625 44.159374Q687.6906 43.221874 687.6906 41.2375Q687.6906 39.33125 686.84686 38.3625Q686.0031 37.39375 684.8156 37.39375Q683.64374 37.39375 682.8156 38.346874Q682.0031 39.3 682.0031 41.175ZM704.64374 45.26875Q703.65936 46.096874 702.7531 46.440624Q701.84686 46.784374 700.8156 46.784374Q699.1125 46.784374 698.1906 45.95625Q697.26874 45.1125 697.26874 43.815624Q697.26874 43.05 697.6125 42.425Q697.97186 41.8 698.53436 41.425Q699.09686 41.034374 699.8 40.83125Q700.3156 40.70625 701.3625 40.565624Q703.4875 40.315624 704.4875 39.971874Q704.5031 39.6125 704.5031 39.503124Q704.5031 38.440624 704.0031 37.9875Q703.33124 37.39375 702.0031 37.39375Q700.7531 37.39375 700.15936 37.83125Q699.58124 38.26875 699.3 39.378124L697.58124 39.14375Q697.8156 38.034374 698.34686 37.3625Q698.8781 36.675 699.89374 36.315624Q700.90936 35.940624 702.2531 35.940624Q703.58124 35.940624 704.40936 36.253124Q705.2375 36.565624 705.6281 37.05Q706.01874 37.51875 706.175 38.2375Q706.26874 38.690624 706.26874 39.8625L706.26874 42.20625Q706.26874 44.659374 706.3781 45.315624Q706.4875 45.95625 706.83124 46.55L704.9875 46.55Q704.72186 46.003124 704.64374 45.26875ZM704.4875 41.346874Q703.53436 41.7375 701.6125 42.003124Q700.53436 42.159374 700.08124 42.3625Q699.64374 42.55 699.39374 42.925Q699.14374 43.3 699.14374 43.76875Q699.14374 44.471874 699.675 44.940624Q700.20624 45.409374 701.2375 45.409374Q702.2531 45.409374 703.03436 44.971874Q703.83124 44.51875 704.20624 43.753124Q704.4875 43.14375 704.4875 41.9875L704.4875 41.346874ZM714.39374 42.76875L716.14374 42.534374Q716.45624 44.034374 717.175 44.690624Q717.90936 45.346874 718.95624 45.346874Q720.1906 45.346874 721.03436 44.4875Q721.89374 43.628124 721.89374 42.3625Q721.89374 41.14375 721.09686 40.3625Q720.3156 39.58125 719.09686 39.58125Q718.59686 39.58125 717.8625 39.76875L718.05 38.221874Q718.22186 38.253124 718.33124 38.253124Q719.45624 38.253124 720.34686 37.675Q721.2531 37.08125 721.2531 35.8625Q721.2531 34.89375 720.59686 34.253124Q719.9406 33.6125 718.90936 33.6125Q717.89374 33.6125 717.20624 34.26875Q716.51874 34.909374 716.33124 36.190624L714.5656 35.878124Q714.89374 34.1125 716.03436 33.14375Q717.175 32.175 718.8781 32.175Q720.05 32.175 721.03436 32.675Q722.01874 33.175 722.53436 34.05Q723.0656 34.925 723.0656 35.89375Q723.0656 36.815624 722.5656 37.58125Q722.0656 38.346874 721.09686 38.8Q722.3625 39.08125 723.0656 40.01875Q723.76874 40.940624 723.76874 42.315624Q723.76874 44.190624 722.39374 45.503124Q721.03436 46.8 718.9406 46.8Q717.05 46.8 715.8 45.675Q714.5656 44.55 714.39374 42.76875ZM725.3781 39.4875Q725.3781 36.95625 725.89374 35.409374Q726.425 33.846874 727.45624 33.01875Q728.4875 32.175 730.05 32.175Q731.20624 32.175 732.0656 32.64375Q732.9406 33.096874 733.5031 33.971874Q734.0656 34.846874 734.39374 36.1125Q734.72186 37.3625 734.72186 39.4875Q734.72186 42.003124 734.1906 43.55Q733.675 45.096874 732.64374 45.95625Q731.6281 46.8 730.05 46.8Q727.97186 46.8 726.8 45.315624Q725.3781 43.51875 725.3781 39.4875ZM727.1906 39.4875Q727.1906 43.01875 728.0031 44.190624Q728.83124 45.346874 730.05 45.346874Q731.2531 45.346874 732.08124 44.175Q732.90936 43.003124 732.90936 39.4875Q732.90936 35.95625 732.08124 34.8Q731.2531 33.628124 730.03436 33.628124Q728.8156 33.628124 728.09686 34.659374Q727.1906 35.95625 727.1906 39.4875ZM736.8625 46.55L736.8625 36.175L738.4406 36.175L738.4406 37.628124Q738.925 36.878124 739.7375 36.409374Q740.55 35.940624 741.58124 35.940624Q742.7375 35.940624 743.47186 36.425Q744.20624 36.89375 744.51874 37.753124Q745.7531 35.940624 747.72186 35.940624Q749.26874 35.940624 750.09686 36.8Q750.925 37.659374 750.925 39.425L750.925 46.55L749.175 46.55L749.175 40.01875Q749.175 38.95625 749.0031 38.503124Q748.83124 38.034374 748.3781 37.753124Q747.9406 37.471874 747.33124 37.471874Q746.2375 37.471874 745.5031 38.20625Q744.78436 38.925 744.78436 40.51875L744.78436 46.55L743.03436 46.55L743.03436 39.815624Q743.03436 38.64375 742.59686 38.065624Q742.175 37.471874 741.1906 37.471874Q740.45624 37.471874 739.8156 37.8625Q739.1906 38.253124 738.90936 39.003124Q738.6281 39.753124 738.6281 41.175L738.6281 46.55L736.8625 46.55ZM759.09686 46.55L759.09686 32.2375L764.01874 32.2375Q765.6906 32.2375 766.58124 32.440624Q767.8 32.721874 768.675 33.45625Q769.8 34.425 770.3625 35.909374Q770.925 37.39375 770.925 39.315624Q770.925 40.940624 770.55 42.20625Q770.175 43.45625 769.5656 44.284374Q768.97186 45.1125 768.26874 45.596874Q767.5656 46.065624 766.5656 46.315624Q765.5656 46.55 764.2531 46.55L759.09686 46.55ZM760.9875 44.8625L764.05 44.8625Q765.45624 44.8625 766.2531 44.596874Q767.0656 44.33125 767.55 43.846874Q768.22186 43.175 768.59686 42.05Q768.97186 40.909374 768.97186 39.284374Q768.97186 37.034374 768.2375 35.83125Q767.5031 34.628124 766.4406 34.221874Q765.6906 33.925 764.0031 33.925L760.9875 33.925L760.9875 44.8625ZM772.84686 46.55L772.84686 36.175L774.425 36.175L774.425 37.753124Q775.03436 36.64375 775.55 36.3Q776.0656 35.940624 776.675 35.940624Q777.5656 35.940624 778.4875 36.503124L777.8781 38.14375Q777.2375 37.753124 776.59686 37.753124Q776.01874 37.753124 775.55 38.1125Q775.09686 38.45625 774.89374 39.065624Q774.6125 40.003124 774.6125 41.1125L774.6125 46.55L772.84686 46.55ZM779.22186 41.3625Q779.22186 38.4875 780.8156 37.096874Q782.15936 35.940624 784.08124 35.940624Q786.22186 35.940624 787.5656 37.346874Q788.925 38.753124 788.925 41.221874Q788.925 43.221874 788.33124 44.378124Q787.7375 45.51875 786.58124 46.159374Q785.4406 46.784374 784.08124 46.784374Q781.89374 46.784374 780.55 45.39375Q779.22186 43.9875 779.22186 41.3625ZM781.01874 41.3625Q781.01874 43.3625 781.8781 44.346874Q782.7531 45.33125 784.08124 45.33125Q785.39374 45.33125 786.2531 44.346874Q787.1281 43.346874 787.1281 41.3Q787.1281 39.378124 786.2531 38.39375Q785.3781 37.39375 784.08124 37.39375Q782.7531 37.39375 781.8781 38.39375Q781.01874 39.378124 781.01874 41.3625ZM790.8625 50.51875L790.8625 36.175L792.47186 36.175L792.47186 37.51875Q793.03436 36.7375 793.7375 36.346874Q794.45624 35.940624 795.47186 35.940624Q796.8 35.940624 797.8156 36.628124Q798.83124 37.315624 799.34686 38.565624Q799.8781 39.8 799.8781 41.284374Q799.8781 42.878124 799.3 44.159374Q798.7375 45.425 797.64374 46.1125Q796.55 46.784374 795.34686 46.784374Q794.47186 46.784374 793.76874 46.409374Q793.08124 46.034374 792.6281 45.471874L792.6281 50.51875L790.8625 50.51875ZM792.45624 41.425Q792.45624 43.425 793.26874 44.378124Q794.08124 45.33125 795.2375 45.33125Q796.40936 45.33125 797.2375 44.346874Q798.08124 43.3625 798.08124 41.26875Q798.08124 39.3 797.2531 38.315624Q796.4406 37.315624 795.3156 37.315624Q794.1906 37.315624 793.3156 38.378124Q792.45624 39.425 792.45624 41.425Z" fill-rule="nonzero"/></svg>